<svg width="81" height="81" viewBox="0 0 81 81" fill="none" xmlns="http://www.w3.org/2000/svg">
<circle cx="40.6699" cy="40.1494" r="40" fill="#40D3E5"/>
<g clip-path="url(#clip0_1_1507)">
<path d="M56.9012 25.9186C51.8749 20.8923 43.697 20.8924 38.6708 25.9187C35.2376 29.3519 34.0451 34.4113 35.5316 39.0015L21.0143 53.519C20.7945 53.7387 20.6709 54.0362 20.6709 54.3476V60.9771C20.6709 61.6248 21.1951 62.149 21.8428 62.149H28.4723C28.7836 62.149 29.0812 62.0254 29.3008 61.8056L30.958 60.1473C31.2108 59.8944 31.3344 59.5397 31.2933 59.1837L31.0872 57.403L33.5546 57.1707C34.1154 57.118 34.5583 56.6751 34.6109 56.1144L34.8433 53.647L36.624 53.8541C36.9547 53.8987 37.2877 53.7877 37.5383 53.5658C37.7878 53.3426 37.9308 53.0244 37.9308 52.6903V50.5083H40.0732C40.3844 50.5083 40.682 50.3847 40.9017 50.165L43.9069 47.1995C48.496 48.6872 53.468 47.5846 56.9012 44.149C61.9274 39.1229 61.9274 30.9448 56.9012 25.9186ZM53.5859 34.2053C52.2149 35.5763 49.9856 35.5763 48.6146 34.2053C47.2436 32.8343 47.2436 30.605 48.6146 29.234C49.9856 27.8629 52.2149 27.8629 53.5859 29.234C54.9569 30.605 54.9569 32.8343 53.5859 34.2053Z" fill="white"/>
</g>
<defs>
<clipPath id="clip0_1_1507">
<rect width="40" height="40" fill="white" transform="translate(20.6699 22.1494)"/>
</clipPath>
</defs>
</svg>
