<svg width="20" height="21" viewBox="0 0 20 21" fill="none" xmlns="http://www.w3.org/2000/svg">
<path fill-rule="evenodd" clip-rule="evenodd" d="M3.0893 11.5312C2.7565 11.4854 2.5 11.1958 2.5 10.8456C2.5 10.4634 2.80526 10.1536 3.18182 10.1536L15.1666 10.1536L10.8372 5.77767L10.7711 5.70021C10.5725 5.42974 10.5937 5.0453 10.8352 4.79914C11.101 4.52836 11.5327 4.52745 11.7995 4.79711L17.2898 10.3458C17.3225 10.3776 17.3521 10.4127 17.378 10.4505C17.5639 10.7207 17.5377 11.0955 17.2994 11.3362L11.7994 16.8938L11.7228 16.9607C11.4555 17.1611 11.0767 17.1379 10.8352 16.8917C10.5695 16.6209 10.5704 16.1828 10.8373 15.9132L15.1677 11.5375L3.18182 11.5375L3.0893 11.5312Z" fill="#3B3B3B"/>
</svg>
