<svg width="81" height="81" viewBox="0 0 81 81" fill="none" xmlns="http://www.w3.org/2000/svg">
<circle cx="40.6699" cy="40.1494" r="40" fill="#FFD167"/>
<g clip-path="url(#clip0_1_1518)">
<path d="M34.9881 36.5203H40.6926H46.397C47.0166 36.5203 47.5184 36.0164 47.5184 35.3943V34.1671C47.5184 30.9489 44.9627 28.1696 41.4805 28.1696C43.3195 27.8019 44.706 26.1729 44.706 24.2177C44.706 21.9923 42.9088 20.1885 40.6926 20.1885C38.4763 20.1885 36.6791 21.9923 36.6791 24.2177C36.6791 26.1729 38.0656 27.8019 39.9046 28.1696C36.4269 28.1696 33.8667 30.9446 33.8667 34.1671V35.3943C33.8668 36.0164 34.3685 36.5203 34.9881 36.5203Z" fill="white"/>
<path d="M25.7105 39.662C25.7814 39.675 25.8518 39.6812 25.9214 39.6812C26.4761 39.6812 26.9688 39.2835 27.0717 38.716C27.3599 37.1259 27.9056 35.5808 28.6934 34.1239C29.4537 32.7178 30.4071 31.4552 31.5272 30.371C31.9927 29.9206 32.0063 29.1764 31.5576 28.709C31.1089 28.2417 30.3679 28.228 29.9024 28.6785C28.6097 29.9298 27.5106 31.3845 26.6359 33.0021C25.7295 34.6785 25.1011 36.4593 24.7684 38.2951C24.6527 38.9338 25.0745 39.5457 25.7105 39.662Z" fill="white"/>
<path d="M52.6918 34.1244C53.4796 35.5814 54.0252 37.1264 54.3134 38.7166C54.4163 39.2841 54.909 39.6817 55.4637 39.6817C55.5332 39.6817 55.6038 39.6755 55.6747 39.6625C56.3107 39.5463 56.7325 38.9343 56.6167 38.2956C56.2839 36.4598 55.6556 34.679 54.7491 33.0027C53.8744 31.385 52.7754 29.9302 51.4826 28.679C51.0172 28.2284 50.2761 28.2422 49.8275 28.7095C49.3788 29.177 49.3925 29.921 49.8579 30.3716C50.978 31.4557 51.9315 32.7184 52.6918 34.1244Z" fill="white"/>
<path d="M45.4215 48.64C43.9115 49.1383 42.3211 49.3938 40.6925 49.3993C40.6714 49.4 40.6496 49.4 40.6286 49.4C39.0358 49.4 37.4751 49.1611 35.9916 48.6901C35.3751 48.4942 34.718 48.8374 34.5229 49.4565C34.3279 50.0755 34.6696 50.7353 35.2861 50.9311C36.9982 51.475 38.7954 51.7507 40.6286 51.7507H40.6925C42.5701 51.7437 44.4063 51.449 46.152 50.8731C46.7661 50.6709 47.1009 50.0065 46.8988 49.3897C46.6975 48.7732 46.0357 48.437 45.4215 48.64Z" fill="white"/>
<path d="M28.2836 51.7592C30.1227 51.3915 31.5092 49.762 31.5092 47.8073C31.5092 45.582 29.712 43.7773 27.4958 43.7773C25.2795 43.7773 23.4823 45.582 23.4823 47.8073C23.4823 49.762 24.8689 51.3915 26.708 51.7592C23.2333 51.7592 20.6699 54.5315 20.6699 57.7569V58.984C20.6699 59.6054 21.1717 60.11 21.7913 60.11H27.4958H33.2002C33.8198 60.11 34.3216 59.6054 34.3216 58.984V57.7569C34.3216 54.5451 31.7729 51.7592 28.2836 51.7592Z" fill="white"/>
<path d="M54.6318 51.7592C56.4709 51.3915 57.8574 49.762 57.8574 47.8073C57.8574 45.582 56.0603 43.7773 53.844 43.7773C51.627 43.7773 49.8306 45.582 49.8306 47.8073C49.8306 49.762 51.2166 51.3915 53.056 51.7592C49.5733 51.7592 47.0181 54.538 47.0181 57.7568V58.9839C47.0181 59.6053 47.5199 60.1099 48.1395 60.1099H53.8439H59.5484C60.1672 60.1099 60.6698 59.6053 60.6698 58.9839V57.7569C60.6699 54.5384 58.114 51.7592 54.6318 51.7592Z" fill="white"/>
</g>
<defs>
<clipPath id="clip0_1_1518">
<rect width="40" height="40" fill="white" transform="translate(20.6699 20.1494)"/>
</clipPath>
</defs>
</svg>
