<svg width="80" height="81" viewBox="0 0 80 81" fill="none" xmlns="http://www.w3.org/2000/svg">
<circle cx="40" cy="40.1494" r="40" fill="#1ECAAB"/>
<g clip-path="url(#clip0_1_1533)">
<path d="M41.0938 50.6963C42.6039 50.6963 43.8281 49.4721 43.8281 47.9619C43.8281 46.4518 42.6039 45.2275 41.0938 45.2275C39.5836 45.2275 38.3594 46.4518 38.3594 47.9619C38.3594 49.4721 39.5836 50.6963 41.0938 50.6963Z" fill="white"/>
<path d="M43.8282 34.6807C43.8282 33.1729 42.6015 31.9463 41.0938 31.9463C40.9625 31.9463 40.833 31.9562 40.7058 31.9745C41.6694 32.9458 42.2657 34.2819 42.2657 35.7549C42.2657 36.2701 42.1912 36.768 42.0552 37.2401C43.0899 36.8501 43.8282 35.8501 43.8282 34.6807Z" fill="white"/>
<path d="M60 35.7549C60 34.0829 58.6446 32.7275 56.9727 32.7275H53.1055C51.4335 32.7275 50.0781 34.0829 50.0781 35.7549C50.0781 37.4268 51.4335 38.7822 53.1055 38.7822C51.4335 38.7822 50.0781 40.1376 50.0781 41.8096C50.0781 43.4815 51.4335 44.8369 53.1055 44.8369C51.4335 44.8369 50.0781 46.1923 50.0781 47.8643C50.0781 49.5362 51.4335 50.8916 53.1055 50.8916C51.4335 50.8916 50.0781 52.247 50.0781 53.9189C50.0781 55.5909 51.4335 56.9463 53.1055 56.9463H56.9727C58.6446 56.9463 60 55.5909 60 53.9189C60 52.247 58.6446 50.8916 56.9727 50.8916C58.6446 50.8916 60 49.5362 60 47.8643C60 46.1923 58.6446 44.8369 56.9727 44.8369C58.6446 44.8369 60 43.4815 60 41.8096C60 40.1376 58.6446 38.7822 56.9727 38.7822C58.6446 38.7822 60 37.4268 60 35.7549Z" fill="white"/>
<path d="M47.7344 53.9189C47.7344 52.7968 48.0809 51.7542 48.6717 50.8916C48.0809 50.029 47.7344 48.9864 47.7344 47.8643C47.7344 46.7421 48.0809 45.6995 48.6717 44.8369C48.0809 43.9743 47.7344 42.9318 47.7344 41.8096C47.7344 40.6874 48.0809 39.6448 48.6717 38.7822C48.0809 37.9196 47.7344 36.8771 47.7344 35.7549C47.7344 32.7932 50.1438 30.3838 53.1055 30.3838H53.5938V23.665C53.5938 21.7234 52.0198 20.1494 50.0781 20.1494H32.1094C30.1677 20.1494 28.5938 21.7234 28.5938 23.665V30.3838H36.8945C37.3326 30.3838 37.758 30.4377 38.1659 30.5371C39.0011 29.9465 40.0157 29.6025 41.0938 29.6025C43.8938 29.6025 46.1719 31.8806 46.1719 34.6807C46.1719 37.4807 43.8938 39.7588 41.0938 39.7588C40.8965 39.7588 40.7013 39.7471 40.5082 39.725C39.5534 40.5949 38.2848 41.126 36.8945 41.126H33.5458C33.0494 43.7841 31.1322 45.9583 28.5938 46.8022V56.6338C28.5938 58.5754 30.1677 60.1494 32.1094 60.1494H50.0781C50.9828 60.1494 51.8074 59.8075 52.4304 59.2461C49.7865 58.9128 47.7344 56.6518 47.7344 53.9189ZM35.625 27.1807C34.9778 27.1807 34.4531 26.656 34.4531 26.0088C34.4531 25.3616 34.9778 24.8369 35.625 24.8369C36.2722 24.8369 36.7969 25.3616 36.7969 26.0088C36.7969 26.656 36.2722 27.1807 35.625 27.1807ZM41.0938 27.1807C40.4466 27.1807 39.9219 26.656 39.9219 26.0088C39.9219 25.3616 40.4466 24.8369 41.0938 24.8369C41.7409 24.8369 42.2656 25.3616 42.2656 26.0088C42.2656 26.656 41.7409 27.1807 41.0938 27.1807ZM41.0938 53.04C38.2937 53.04 36.0156 50.762 36.0156 47.9619C36.0156 45.1618 38.2937 42.8838 41.0938 42.8838C43.8938 42.8838 46.1719 45.1618 46.1719 47.9619C46.1719 50.762 43.8938 53.04 41.0938 53.04ZM46.5625 27.1807C45.9153 27.1807 45.3906 26.656 45.3906 26.0088C45.3906 25.3616 45.9153 24.8369 46.5625 24.8369C47.2097 24.8369 47.7344 25.3616 47.7344 26.0088C47.7344 26.656 47.2097 27.1807 46.5625 27.1807Z" fill="white"/>
<path d="M31.3281 39.7588V38.7822H36.8945C38.5665 38.7822 39.9219 37.4268 39.9219 35.7549C39.9219 34.0829 38.5665 32.7275 36.8945 32.7275H27.0171C24.9197 32.7275 22.9704 33.8588 21.9298 35.6798L20.1544 38.7868C20.0532 38.9638 20 39.1643 20 39.3682V55.7744C20 56.4216 20.5247 56.9463 21.1719 56.9463H26.25V44.8279H26.5428C29.211 44.6761 31.3281 42.465 31.3281 39.7588Z" fill="white"/>
</g>
<defs>
<clipPath id="clip0_1_1533">
<rect width="40" height="40" fill="white" transform="translate(20 20.1494)"/>
</clipPath>
</defs>
</svg>
