<svg width="80" height="81" viewBox="0 0 80 81" fill="none" xmlns="http://www.w3.org/2000/svg">
<circle cx="40" cy="40.1494" r="40" fill="#6A99FF"/>
<g clip-path="url(#clip0_1_1483)">
<path d="M35.4166 20.1494H22.9166C21.3083 20.1494 20 21.4577 20 23.066V30.566C20 32.1746 21.3083 33.4828 22.9166 33.4828H35.4166C37.0251 33.4828 38.3334 32.1746 38.3334 30.566V23.066C38.3334 21.4577 37.0251 20.1494 35.4166 20.1494Z" fill="white"/>
<path d="M35.4166 36.8159H22.9166C21.3083 36.8159 20 38.1242 20 39.7328V57.2328C20 58.8411 21.3083 60.1494 22.9166 60.1494H35.4166C37.0251 60.1494 38.3334 58.8411 38.3334 57.2328V39.7328C38.3334 38.1242 37.0251 36.8159 35.4166 36.8159Z" fill="white"/>
<path d="M57.0834 46.8159H44.5834C42.9749 46.8159 41.6666 48.1242 41.6666 49.7328V57.2328C41.6666 58.8411 42.9749 60.1494 44.5834 60.1494H57.0834C58.6917 60.1494 60 58.8411 60 57.2328V49.7328C60 48.1242 58.6917 46.8159 57.0834 46.8159Z" fill="white"/>
<path d="M57.0834 20.1494H44.5834C42.9749 20.1494 41.6666 21.4577 41.6666 23.066V40.566C41.6666 42.1746 42.9749 43.4828 44.5834 43.4828H57.0834C58.6917 43.4828 60 42.1746 60 40.566V23.066C60 21.4577 58.6917 20.1494 57.0834 20.1494V20.1494Z" fill="white"/>
</g>
<defs>
<clipPath id="clip0_1_1483">
<rect width="40" height="40" fill="white" transform="translate(20 20.1494)"/>
</clipPath>
</defs>
</svg>
