<svg width="916" height="916" viewBox="0 0 916 916" fill="none" xmlns="http://www.w3.org/2000/svg">
<g filter="url(#filter0_d_1_1415)">
<rect x="152.891" y="102.653" width="550.626" height="641.805" rx="14.9032" fill="white"/>
</g>
<rect x="207.565" y="445.383" width="441.277" height="220.004" rx="6.51083" stroke="#B3BAC5" stroke-width="0.868111" stroke-dasharray="4.34 4.34"/>
<rect x="256.842" y="485.308" width="342.724" height="25.6281" fill="#E5E8EE"/>
<rect x="256.842" y="599.834" width="342.724" height="25.6281" fill="#E5E8EE"/>
<rect x="256.842" y="542.571" width="119.22" height="25.6281" fill="#E5E8EE"/>
<rect x="397.086" y="542.571" width="119.22" height="25.6281" fill="#E5E8EE"/>
<rect x="537.332" y="542.571" width="62.2338" height="25.6281" fill="#E5E8EE"/>
<rect x="207.565" y="181.724" width="441.277" height="220.004" rx="6.51083" stroke="#B3BAC5" stroke-width="0.868111" stroke-dasharray="4.34 4.34"/>
<rect x="256.842" y="221.649" width="342.724" height="25.6281" fill="#E5E8EE"/>
<rect x="256.842" y="336.175" width="342.724" height="25.6281" fill="#E5E8EE"/>
<rect x="256.842" y="278.912" width="119.22" height="25.6281" fill="#E5E8EE"/>
<rect x="397.086" y="278.912" width="119.22" height="25.6281" fill="#E5E8EE"/>
<rect x="537.332" y="278.912" width="62.2338" height="25.6281" fill="#E5E8EE"/>
<g filter="url(#filter1_d_1_1415)">
<rect x="61.9771" y="269.159" width="383.22" height="215.184" rx="17.932" fill="white"/>
</g>
<path d="M264.396 349.05C264.922 348.862 265.562 348.674 266.615 348.674C268.948 348.674 270.603 349.99 270.603 352.285C270.603 354.317 269.06 355.972 266.465 355.972C263.906 355.972 262.138 354.166 262.026 351.683L257.022 352.661C257.323 356.762 260.784 360.449 266.465 360.449C272.371 360.449 275.832 356.574 275.832 352.36C275.832 347.884 272.446 345.062 268.759 344.912L275.079 339.645V335.469H257.812V339.946H268.496L262.101 345.438L264.396 349.05ZM279.299 359.094C280.578 359.884 282.873 360.449 284.942 360.449C293.293 360.449 297.695 355.257 297.695 346.454C297.695 338.667 293.256 334.905 287.951 334.905C282.534 334.905 278.584 338.479 278.584 343.482C278.584 348.523 282.459 351.683 287.011 351.683C289.569 351.683 291.638 350.592 292.654 349.05C292.315 353.527 289.343 355.972 284.904 355.972C283.211 355.972 281.443 355.408 280.578 354.919L279.299 359.094ZM291.977 343.332C291.977 345.739 290.058 347.357 287.763 347.357C285.469 347.357 283.588 345.777 283.588 343.332C283.588 340.924 285.506 339.306 287.763 339.306C290.058 339.306 291.977 340.924 291.977 343.332ZM310.051 345.476C307.794 345.438 306.477 344.009 306.477 342.278C306.477 340.661 307.794 339.194 310.051 339.194C312.346 339.194 313.663 340.661 313.663 342.278C313.663 344.009 312.346 345.438 310.051 345.476ZM310.051 356.16C307.38 356.16 305.951 354.505 305.951 352.774C305.951 351.006 307.305 349.313 310.051 349.313C312.798 349.313 314.189 351.006 314.189 352.774C314.189 354.505 312.76 356.16 310.051 356.16ZM310.051 360.449C315.619 360.449 319.268 357.514 319.268 353.301C319.268 350.667 317.538 348.297 314.979 347.357C317.425 346.454 318.779 344.046 318.779 341.902C318.779 337.802 315.13 334.905 310.051 334.905C304.973 334.905 301.324 337.802 301.324 341.902C301.324 344.084 302.716 346.454 305.161 347.357C302.565 348.335 300.835 350.667 300.835 353.301C300.835 357.514 304.484 360.449 310.051 360.449ZM340.361 359.884H346.869L336.223 344.836L346.794 333.212H339.985L329.301 345.288V333.212H324.109V359.884H329.301V352.473L332.611 348.824L340.361 359.884Z" fill="#333333"/>
<path d="M272.766 398.012H266.079V415.448H263.314V398.012H256.627V395.444H272.766V398.012ZM275.42 412.232C276.248 413.078 277.254 413.502 278.439 413.502C279.624 413.502 280.621 413.078 281.43 412.232C282.257 411.367 282.671 410.172 282.671 408.649C282.671 407.144 282.257 405.968 281.43 405.122C280.621 404.257 279.624 403.824 278.439 403.824C277.254 403.824 276.248 404.257 275.42 405.122C274.611 405.968 274.207 407.144 274.207 408.649C274.207 410.172 274.611 411.367 275.42 412.232ZM273.445 403.514C274.762 402.141 276.426 401.454 278.439 401.454C280.452 401.454 282.107 402.141 283.405 403.514C284.721 404.868 285.38 406.58 285.38 408.649C285.38 410.737 284.731 412.467 283.433 413.84C282.135 415.195 280.47 415.872 278.439 415.872C276.408 415.872 274.743 415.195 273.445 413.84C272.147 412.467 271.498 410.737 271.498 408.649C271.498 406.58 272.147 404.868 273.445 403.514ZM292.19 397.589V401.877H295.125V404.275H292.19V411.329C292.19 411.969 292.331 412.439 292.614 412.74C292.915 413.041 293.404 413.191 294.081 413.191C294.476 413.191 294.824 413.154 295.125 413.078V415.336C294.673 415.505 294.071 415.59 293.319 415.59C292.153 415.59 291.231 415.251 290.554 414.574C289.877 413.897 289.538 412.947 289.538 411.724V404.275H286.942V401.877H287.676C288.372 401.877 288.889 401.689 289.228 401.313C289.585 400.918 289.764 400.41 289.764 399.789V397.589H292.19ZM297.818 411.809C297.818 410.643 298.194 409.712 298.947 409.016C299.699 408.301 300.696 407.859 301.938 407.689L305.606 407.153C306.301 407.059 306.649 406.721 306.649 406.138C306.649 405.423 306.405 404.84 305.916 404.388C305.427 403.937 304.693 403.711 303.715 403.711C302.812 403.711 302.097 403.965 301.571 404.473C301.044 404.962 300.734 405.62 300.64 406.448L298.1 405.856C298.232 404.558 298.825 403.504 299.878 402.695C300.931 401.868 302.192 401.454 303.659 401.454C305.577 401.454 306.997 401.924 307.919 402.865C308.841 403.786 309.302 404.971 309.302 406.42V413.22C309.302 414.028 309.358 414.771 309.471 415.448H306.875C306.781 414.884 306.734 414.273 306.734 413.615C306.358 414.216 305.803 414.743 305.069 415.195C304.355 415.646 303.452 415.872 302.361 415.872C301.025 415.872 299.934 415.477 299.088 414.687C298.241 413.878 297.818 412.919 297.818 411.809ZM302.728 413.643C303.913 413.643 304.863 413.323 305.577 412.683C306.292 412.044 306.649 411.028 306.649 409.636V409.016L302.502 409.636C301.9 409.73 301.42 409.947 301.063 410.285C300.706 410.624 300.527 411.085 300.527 411.668C300.527 412.194 300.724 412.655 301.119 413.05C301.533 413.445 302.069 413.643 302.728 413.643ZM316.085 415.448H313.433V395.021H316.085V415.448ZM340.15 415.448H327.933V395.444H330.698V412.853H340.15V415.448ZM345.732 415.448H343.108V401.877H345.732V415.448ZM343.052 398.096C342.694 397.72 342.516 397.269 342.516 396.742C342.516 396.216 342.694 395.764 343.052 395.388C343.428 395.012 343.879 394.824 344.406 394.824C344.933 394.824 345.384 395.012 345.76 395.388C346.137 395.745 346.325 396.197 346.325 396.742C346.325 397.269 346.137 397.72 345.76 398.096C345.384 398.454 344.933 398.633 344.406 398.633C343.879 398.633 343.428 398.454 343.052 398.096ZM362.405 401.877L356.621 407.605L362.518 415.448H359.189L354.759 409.467L352.869 411.357V415.448H350.245V395.021H352.869V407.887L358.737 401.877H362.405ZM366.073 407.266H373.493C373.456 406.251 373.117 405.423 372.478 404.783C371.838 404.125 370.935 403.796 369.769 403.796C368.716 403.796 367.851 404.144 367.173 404.84C366.496 405.517 366.129 406.326 366.073 407.266ZM373.888 410.793L376.174 411.583C375.779 412.843 375.045 413.878 373.973 414.687C372.901 415.477 371.603 415.872 370.079 415.872C368.18 415.872 366.562 415.223 365.227 413.925C363.91 412.608 363.252 410.84 363.252 408.621C363.252 406.551 363.891 404.84 365.17 403.485C366.449 402.131 367.973 401.454 369.741 401.454C371.791 401.454 373.39 402.103 374.537 403.401C375.685 404.68 376.258 406.401 376.258 408.564C376.258 408.903 376.24 409.185 376.202 409.411H365.988C366.007 410.614 366.402 411.602 367.173 412.373C367.963 413.144 368.932 413.53 370.079 413.53C372.017 413.53 373.287 412.618 373.888 410.793ZM378.374 411.922L380.773 411.075C380.867 411.809 381.186 412.42 381.732 412.909C382.277 413.379 383.011 413.615 383.933 413.615C384.647 413.615 385.212 413.445 385.625 413.107C386.039 412.749 386.246 412.317 386.246 411.809C386.246 410.906 385.663 410.323 384.497 410.059L382.183 409.552C381.13 409.326 380.302 408.874 379.7 408.197C379.099 407.52 378.798 406.702 378.798 405.743C378.798 404.576 379.268 403.57 380.208 402.724C381.168 401.877 382.306 401.454 383.622 401.454C384.488 401.454 385.259 401.586 385.936 401.849C386.613 402.094 387.14 402.423 387.516 402.837C387.892 403.25 388.174 403.636 388.362 403.993C388.55 404.351 388.691 404.718 388.786 405.094L386.444 405.968C386.406 405.743 386.34 405.526 386.246 405.319C386.152 405.094 386.002 404.849 385.795 404.586C385.607 404.323 385.325 404.116 384.948 403.965C384.572 403.796 384.13 403.711 383.622 403.711C382.964 403.711 382.418 403.89 381.986 404.247C381.572 404.605 381.365 405.028 381.365 405.517C381.365 406.382 381.882 406.928 382.917 407.153L385.118 407.633C386.321 407.896 387.243 408.385 387.883 409.1C388.541 409.796 388.87 410.652 388.87 411.668C388.87 412.74 388.428 413.709 387.544 414.574C386.679 415.439 385.466 415.872 383.904 415.872C382.23 415.872 380.923 415.458 379.983 414.63C379.042 413.784 378.506 412.881 378.374 411.922Z" fill="#5A7184"/>
<path opacity="0.1" fill-rule="evenodd" clip-rule="evenodd" d="M169.067 430.047C198.778 430.047 222.863 405.962 222.863 376.251C222.863 346.54 198.778 322.455 169.067 322.455C139.356 322.455 115.271 346.54 115.271 376.251C115.271 405.962 139.356 430.047 169.067 430.047Z" fill="#1565D8"/>
<path d="M159.259 376.358H154.36C153.503 376.358 152.891 377.032 152.891 377.828V392.523C152.891 393.38 153.503 393.992 154.36 393.992H159.259C160.055 393.992 160.728 393.38 160.728 392.523V377.828C160.728 377.032 160.055 376.358 159.259 376.358ZM156.81 391.543C155.952 391.543 155.34 390.931 155.34 390.073C155.34 389.278 155.952 388.604 156.81 388.604C157.606 388.604 158.279 389.278 158.279 390.073C158.279 390.931 157.606 391.543 156.81 391.543ZM176.403 367.663C176.403 363.132 173.464 362.643 171.995 362.643C170.709 362.643 170.158 365.092 169.913 366.194C169.545 367.541 169.239 368.888 168.321 369.806C166.361 371.827 165.32 374.337 162.871 376.725C162.749 376.909 162.688 377.093 162.688 377.276V390.38C162.688 390.747 162.994 391.053 163.361 391.114C164.341 391.114 165.627 391.665 166.606 392.094C168.566 392.951 170.954 393.992 173.893 393.992H174.076C176.709 393.992 179.832 393.992 181.057 392.217C181.608 391.482 181.73 390.563 181.424 389.461C182.465 388.42 182.955 386.461 182.465 384.869C183.506 383.461 183.628 381.44 183.016 380.032C183.751 379.297 184.24 378.134 184.179 377.032C184.179 375.133 182.587 373.419 180.567 373.419H174.321C174.811 371.705 176.403 370.235 176.403 367.663Z" fill="#1565D8"/>
<g filter="url(#filter2_d_1_1415)">
<path d="M427.835 583.102C427.835 574.871 434.507 568.199 442.738 568.199H797.932C806.163 568.199 812.835 574.871 812.835 583.102V831.489C812.835 839.72 806.163 846.393 797.932 846.393H442.738C434.507 846.393 427.835 839.72 427.835 831.489V583.102Z" fill="white"/>
</g>
<rect x="455.158" y="768.151" width="161.452" height="47.1936" rx="9.93548" fill="#6A99FF"/>
<path d="M489.304 788.887L487.426 789.479C487.345 789.003 487.107 788.569 486.713 788.175C486.319 787.78 485.751 787.583 485.009 787.583C484.395 787.583 483.885 787.757 483.479 788.105C483.085 788.453 482.888 788.87 482.888 789.357C482.888 790.203 483.369 790.73 484.331 790.939L486.104 791.304C487.171 791.513 487.994 791.936 488.573 792.573C489.153 793.211 489.443 793.97 489.443 794.851C489.443 795.871 489.049 796.752 488.26 797.494C487.484 798.224 486.423 798.589 485.079 798.589C483.63 798.589 482.499 798.213 481.688 797.459C480.877 796.694 480.419 795.807 480.314 794.799L482.262 794.243C482.331 794.938 482.61 795.523 483.096 795.999C483.583 796.474 484.244 796.712 485.079 796.712C485.797 796.712 486.348 796.555 486.73 796.242C487.124 795.918 487.321 795.506 487.321 795.008C487.321 794.602 487.177 794.254 486.887 793.964C486.597 793.663 486.191 793.454 485.67 793.339L483.931 792.973C482.969 792.776 482.204 792.376 481.636 791.774C481.08 791.171 480.801 790.417 480.801 789.513C480.801 788.482 481.213 787.595 482.036 786.853C482.859 786.111 483.844 785.74 484.992 785.74C486.301 785.74 487.304 786.059 488 786.697C488.695 787.323 489.13 788.053 489.304 788.887ZM495.003 791.461C494.354 791.461 493.803 791.698 493.351 792.174C492.899 792.637 492.673 793.275 492.673 794.086C492.673 794.909 492.899 795.558 493.351 796.034C493.815 796.509 494.377 796.746 495.038 796.746C495.629 796.746 496.098 796.59 496.446 796.277C496.806 795.952 497.043 795.587 497.159 795.182L498.933 795.825C498.701 796.578 498.249 797.227 497.576 797.772C496.916 798.317 496.069 798.589 495.038 798.589C493.798 798.589 492.754 798.161 491.908 797.303C491.074 796.445 490.656 795.373 490.656 794.086C490.656 792.788 491.068 791.716 491.891 790.87C492.725 790.023 493.757 789.6 494.986 789.6C496.04 789.6 496.898 789.873 497.559 790.417C498.231 790.962 498.666 791.617 498.863 792.382L497.055 793.043C496.939 792.602 496.713 792.232 496.377 791.93C496.052 791.617 495.594 791.461 495.003 791.461ZM502.741 793.356V798.329H500.724V785.74H502.741V790.678C503.285 789.971 504.091 789.618 505.157 789.618C506.154 789.618 506.919 789.931 507.452 790.557C507.986 791.183 508.252 791.988 508.252 792.973V798.329H506.235V793.321C506.235 792.753 506.096 792.301 505.818 791.965C505.54 791.617 505.099 791.443 504.497 791.443C503.963 791.443 503.54 791.623 503.227 791.982C502.926 792.342 502.764 792.8 502.741 793.356ZM512.116 793.165H516.272C516.248 792.631 516.057 792.185 515.698 791.826C515.35 791.467 514.846 791.287 514.185 791.287C513.582 791.287 513.096 791.478 512.725 791.861C512.354 792.232 512.151 792.666 512.116 793.165ZM516.498 795.373L518.202 795.912C517.958 796.688 517.5 797.332 516.828 797.842C516.167 798.34 515.35 798.589 514.376 798.589C513.171 798.589 512.145 798.178 511.299 797.355C510.464 796.532 510.047 795.431 510.047 794.051C510.047 792.753 510.453 791.687 511.264 790.852C512.087 790.018 513.055 789.6 514.168 789.6C515.466 789.6 516.48 790 517.21 790.8C517.941 791.588 518.306 792.655 518.306 793.999C518.306 794.359 518.288 794.573 518.254 794.643H512.064C512.087 795.28 512.319 795.807 512.759 796.225C513.211 796.642 513.75 796.851 514.376 796.851C515.466 796.851 516.173 796.358 516.498 795.373ZM521.589 794.069C521.589 794.88 521.798 795.535 522.215 796.034C522.633 796.52 523.183 796.764 523.867 796.764C524.528 796.764 525.067 796.515 525.484 796.016C525.901 795.518 526.11 794.863 526.11 794.051C526.11 793.252 525.907 792.614 525.502 792.139C525.096 791.664 524.557 791.426 523.885 791.426C523.212 791.426 522.662 791.669 522.233 792.156C521.804 792.631 521.589 793.269 521.589 794.069ZM528.057 785.74V796.781C528.057 797.349 528.086 797.865 528.144 798.329H526.214C526.156 798.004 526.127 797.639 526.127 797.233C525.919 797.616 525.594 797.929 525.154 798.172C524.713 798.416 524.209 798.537 523.641 798.537C522.436 798.537 521.456 798.114 520.703 797.268C519.949 796.422 519.573 795.355 519.573 794.069C519.573 792.828 519.949 791.779 520.703 790.922C521.468 790.064 522.436 789.635 523.606 789.635C524.279 789.635 524.818 789.757 525.223 790C525.641 790.244 525.93 790.528 526.093 790.852V785.74H528.057ZM536.153 797.39C535.956 797.761 535.632 798.05 535.18 798.259C534.739 798.468 534.264 798.572 533.754 798.572C532.769 798.572 531.986 798.253 531.407 797.616C530.839 796.978 530.555 796.173 530.555 795.199V789.861H532.572V794.834C532.572 795.402 532.711 795.865 532.989 796.225C533.267 796.584 533.696 796.764 534.276 796.764C534.844 796.764 535.278 796.59 535.58 796.242C535.893 795.894 536.049 795.437 536.049 794.869V789.861H538.066V796.781C538.066 797.291 538.095 797.807 538.153 798.329H536.223C536.177 798.074 536.153 797.761 536.153 797.39ZM542.694 798.329H540.677V785.74H542.694V798.329ZM546.703 793.165H550.859C550.836 792.631 550.645 792.185 550.285 791.826C549.937 791.467 549.433 791.287 548.773 791.287C548.17 791.287 547.683 791.478 547.312 791.861C546.941 792.232 546.738 792.666 546.703 793.165ZM551.085 795.373L552.789 795.912C552.546 796.688 552.088 797.332 551.415 797.842C550.755 798.34 549.937 798.589 548.964 798.589C547.758 798.589 546.732 798.178 545.886 797.355C545.052 796.532 544.634 795.431 544.634 794.051C544.634 792.753 545.04 791.687 545.851 790.852C546.674 790.018 547.642 789.6 548.755 789.6C550.053 789.6 551.068 790 551.798 790.8C552.528 791.588 552.893 792.655 552.893 793.999C552.893 794.359 552.876 794.573 552.841 794.643H546.651C546.674 795.28 546.906 795.807 547.347 796.225C547.799 796.642 548.338 796.851 548.964 796.851C550.053 796.851 550.76 796.358 551.085 795.373ZM561.394 791.669H563.567C564.228 791.669 564.744 791.501 565.115 791.165C565.497 790.817 565.688 790.354 565.688 789.774C565.688 789.183 565.497 788.714 565.115 788.366C564.744 788.018 564.228 787.844 563.567 787.844H561.394V791.669ZM563.88 793.512H561.394V798.329H559.307V786.001H563.88C565.051 786.001 565.996 786.355 566.714 787.062C567.444 787.769 567.81 788.667 567.81 789.757C567.81 790.858 567.444 791.762 566.714 792.469C565.996 793.165 565.051 793.512 563.88 793.512ZM571.016 796.068C571.48 796.544 572.042 796.781 572.702 796.781C573.363 796.781 573.92 796.544 574.372 796.068C574.835 795.593 575.067 794.932 575.067 794.086C575.067 793.252 574.835 792.602 574.372 792.139C573.92 791.664 573.363 791.426 572.702 791.426C572.042 791.426 571.48 791.664 571.016 792.139C570.564 792.602 570.338 793.252 570.338 794.086C570.338 794.921 570.564 795.581 571.016 796.068ZM572.702 789.6C573.978 789.6 575.027 790.023 575.85 790.87C576.684 791.716 577.101 792.788 577.101 794.086C577.101 795.384 576.684 796.462 575.85 797.32C575.027 798.166 573.978 798.589 572.702 798.589C571.439 798.589 570.39 798.166 569.555 797.32C568.732 796.462 568.321 795.384 568.321 794.086C568.321 792.788 568.732 791.716 569.555 790.87C570.39 790.023 571.439 789.6 572.702 789.6ZM578.303 796.034L580.059 795.547C580.094 795.952 580.262 796.294 580.563 796.573C580.865 796.851 581.27 796.99 581.78 796.99C582.174 796.99 582.482 796.897 582.702 796.712C582.934 796.526 583.05 796.294 583.05 796.016C583.05 795.529 582.719 795.216 582.058 795.077L580.807 794.799C580.076 794.637 579.514 794.335 579.12 793.895C578.726 793.454 578.529 792.933 578.529 792.33C578.529 791.588 578.83 790.951 579.433 790.417C580.036 789.873 580.772 789.6 581.641 789.6C582.198 789.6 582.69 789.681 583.119 789.844C583.548 790.006 583.878 790.22 584.11 790.487C584.354 790.742 584.539 790.991 584.667 791.235C584.794 791.478 584.875 791.722 584.91 791.965L583.206 792.452C583.16 792.127 583.009 791.837 582.754 791.582C582.511 791.316 582.14 791.183 581.641 791.183C581.293 791.183 581.004 791.281 580.772 791.478C580.54 791.664 580.424 791.89 580.424 792.156C580.424 792.631 580.708 792.927 581.276 793.043L582.563 793.304C583.351 793.478 583.954 793.791 584.371 794.243C584.788 794.695 584.997 795.24 584.997 795.877C584.997 796.584 584.713 797.216 584.145 797.772C583.589 798.317 582.806 798.589 581.798 798.589C581.218 798.589 580.696 798.502 580.233 798.329C579.781 798.155 579.421 797.935 579.155 797.668C578.9 797.39 578.697 797.117 578.546 796.851C578.407 796.573 578.326 796.3 578.303 796.034ZM589.553 787.27V789.861H591.309V791.652H589.553V795.581C589.553 795.952 589.64 796.225 589.814 796.399C589.988 796.561 590.26 796.642 590.631 796.642C590.863 796.642 591.095 796.619 591.326 796.573V798.242C591.025 798.369 590.613 798.433 590.092 798.433C589.304 798.433 588.684 798.213 588.231 797.772C587.779 797.32 587.553 796.7 587.553 795.912V791.652H585.989V789.861H586.423C586.852 789.861 587.177 789.739 587.397 789.496C587.617 789.253 587.727 788.934 587.727 788.54V787.27H589.553Z" fill="white"/>
<rect opacity="0.1" x="636.48" y="768.151" width="149.032" height="47.1936" rx="9.93548" fill="#6A99FF"/>
<path d="M677.28 788.887L675.402 789.479C675.321 789.003 675.083 788.569 674.689 788.175C674.295 787.78 673.727 787.583 672.985 787.583C672.371 787.583 671.861 787.757 671.455 788.105C671.061 788.453 670.864 788.87 670.864 789.357C670.864 790.203 671.345 790.73 672.307 790.939L674.081 791.304C675.147 791.513 675.97 791.936 676.55 792.573C677.129 793.211 677.419 793.97 677.419 794.851C677.419 795.871 677.025 796.752 676.237 797.494C675.46 798.224 674.399 798.589 673.055 798.589C671.606 798.589 670.476 798.213 669.664 797.459C668.853 796.694 668.395 795.807 668.291 794.799L670.238 794.243C670.308 794.938 670.586 795.523 671.073 795.999C671.559 796.474 672.22 796.712 673.055 796.712C673.773 796.712 674.324 796.555 674.707 796.242C675.101 795.918 675.298 795.506 675.298 795.008C675.298 794.602 675.153 794.254 674.863 793.964C674.573 793.663 674.168 793.454 673.646 793.339L671.907 792.973C670.945 792.776 670.18 792.376 669.612 791.774C669.056 791.171 668.778 790.417 668.778 789.513C668.778 788.482 669.189 787.595 670.012 786.853C670.835 786.111 671.82 785.74 672.968 785.74C674.278 785.74 675.28 786.059 675.976 786.697C676.671 787.323 677.106 788.053 677.28 788.887ZM680.702 793.165H684.857C684.834 792.631 684.643 792.185 684.283 791.826C683.936 791.467 683.431 791.287 682.771 791.287C682.168 791.287 681.681 791.478 681.31 791.861C680.939 792.232 680.736 792.666 680.702 793.165ZM685.083 795.373L686.787 795.912C686.544 796.688 686.086 797.332 685.413 797.842C684.753 798.34 683.936 798.589 682.962 798.589C681.756 798.589 680.731 798.178 679.884 797.355C679.05 796.532 678.632 795.431 678.632 794.051C678.632 792.753 679.038 791.687 679.85 790.852C680.673 790.018 681.64 789.6 682.753 789.6C684.051 789.6 685.066 790 685.796 790.8C686.526 791.588 686.891 792.655 686.891 793.999C686.891 794.359 686.874 794.573 686.839 794.643H680.649C680.673 795.28 680.904 795.807 681.345 796.225C681.797 796.642 682.336 796.851 682.962 796.851C684.051 796.851 684.759 796.358 685.083 795.373ZM690.227 793.165H694.383C694.359 792.631 694.168 792.185 693.809 791.826C693.461 791.467 692.957 791.287 692.296 791.287C691.693 791.287 691.207 791.478 690.836 791.861C690.465 792.232 690.262 792.666 690.227 793.165ZM694.609 795.373L696.313 795.912C696.069 796.688 695.611 797.332 694.939 797.842C694.278 798.34 693.461 798.589 692.487 798.589C691.282 798.589 690.256 798.178 689.41 797.355C688.575 796.532 688.158 795.431 688.158 794.051C688.158 792.753 688.564 791.687 689.375 790.852C690.198 790.018 691.166 789.6 692.279 789.6C693.577 789.6 694.591 790 695.322 790.8C696.052 791.588 696.417 792.655 696.417 793.999C696.417 794.359 696.4 794.573 696.365 794.643H690.175C690.198 795.28 690.43 795.807 690.87 796.225C691.322 796.642 691.861 796.851 692.487 796.851C693.577 796.851 694.284 796.358 694.609 795.373ZM704.952 798.329H702.831V786.001H704.952V798.329ZM709.751 793.443V798.329H707.734V789.861H709.699V790.991C709.965 790.528 710.319 790.186 710.759 789.965C711.211 789.734 711.692 789.618 712.202 789.618C713.199 789.618 713.959 789.931 714.48 790.557C715.002 791.183 715.263 791.988 715.263 792.973V798.329H713.246V793.321C713.246 792.753 713.107 792.301 712.828 791.965C712.55 791.617 712.11 791.443 711.507 791.443C710.951 791.443 710.516 791.635 710.203 792.017C709.902 792.388 709.751 792.863 709.751 793.443ZM716.97 796.034L718.726 795.547C718.761 795.952 718.929 796.294 719.231 796.573C719.532 796.851 719.938 796.99 720.448 796.99C720.842 796.99 721.149 796.897 721.369 796.712C721.601 796.526 721.717 796.294 721.717 796.016C721.717 795.529 721.387 795.216 720.726 795.077L719.474 794.799C718.744 794.637 718.182 794.335 717.788 793.895C717.393 793.454 717.196 792.933 717.196 792.33C717.196 791.588 717.498 790.951 718.1 790.417C718.703 789.873 719.439 789.6 720.309 789.6C720.865 789.6 721.358 789.681 721.787 789.844C722.215 790.006 722.546 790.22 722.778 790.487C723.021 790.742 723.207 790.991 723.334 791.235C723.462 791.478 723.543 791.722 723.577 791.965L721.873 792.452C721.827 792.127 721.676 791.837 721.421 791.582C721.178 791.316 720.807 791.183 720.309 791.183C719.961 791.183 719.671 791.281 719.439 791.478C719.207 791.664 719.092 791.89 719.092 792.156C719.092 792.631 719.376 792.927 719.944 793.043L721.23 793.304C722.018 793.478 722.621 793.791 723.038 794.243C723.456 794.695 723.664 795.24 723.664 795.877C723.664 796.584 723.38 797.216 722.812 797.772C722.256 798.317 721.474 798.589 720.465 798.589C719.886 798.589 719.364 798.502 718.9 798.329C718.448 798.155 718.089 797.935 717.822 797.668C717.567 797.39 717.364 797.117 717.214 796.851C717.075 796.573 716.994 796.3 716.97 796.034ZM727.664 798.329H725.664V789.861H727.664V798.329ZM725.734 787.809C725.479 787.554 725.351 787.247 725.351 786.888C725.351 786.529 725.479 786.221 725.734 785.966C725.989 785.7 726.296 785.566 726.655 785.566C727.026 785.566 727.339 785.694 727.594 785.949C727.849 786.204 727.977 786.517 727.977 786.888C727.977 787.247 727.849 787.554 727.594 787.809C727.339 788.064 727.026 788.192 726.655 788.192C726.296 788.192 725.989 788.064 725.734 787.809ZM729.657 798.798L731.518 798.311C731.587 798.844 731.813 799.279 732.196 799.615C732.59 799.963 733.071 800.137 733.639 800.137C735.239 800.137 736.038 799.291 736.038 797.598V796.712C735.841 797.071 735.528 797.367 735.1 797.598C734.671 797.83 734.166 797.946 733.587 797.946C732.451 797.946 731.512 797.558 730.77 796.781C730.04 796.005 729.675 795.019 729.675 793.825C729.675 792.678 730.04 791.704 730.77 790.904C731.5 790.105 732.439 789.705 733.587 789.705C734.827 789.705 735.662 790.116 736.091 790.939V789.861H738.038V797.529C738.038 798.781 737.684 799.818 736.977 800.641C736.27 801.476 735.175 801.893 733.691 801.893C732.602 801.893 731.686 801.597 730.944 801.006C730.202 800.415 729.773 799.679 729.657 798.798ZM733.917 796.225C734.566 796.225 735.088 796.01 735.482 795.581C735.888 795.141 736.091 794.556 736.091 793.825C736.091 793.107 735.888 792.533 735.482 792.104C735.076 791.664 734.555 791.443 733.917 791.443C733.268 791.443 732.735 791.664 732.318 792.104C731.912 792.533 731.709 793.107 731.709 793.825C731.709 794.556 731.912 795.141 732.318 795.581C732.723 796.01 733.256 796.225 733.917 796.225ZM742.521 793.356V798.329H740.505V785.74H742.521V790.678C743.066 789.971 743.872 789.618 744.938 789.618C745.935 789.618 746.7 789.931 747.233 790.557C747.767 791.183 748.033 791.988 748.033 792.973V798.329H746.016V793.321C746.016 792.753 745.877 792.301 745.599 791.965C745.321 791.617 744.88 791.443 744.278 791.443C743.744 791.443 743.321 791.623 743.008 791.982C742.707 792.342 742.545 792.8 742.521 793.356ZM753.044 787.27V789.861H754.801V791.652H753.044V795.581C753.044 795.952 753.131 796.225 753.305 796.399C753.479 796.561 753.752 796.642 754.122 796.642C754.354 796.642 754.586 796.619 754.818 796.573V798.242C754.517 798.369 754.105 798.433 753.583 798.433C752.795 798.433 752.175 798.213 751.723 797.772C751.271 797.32 751.045 796.7 751.045 795.912V791.652H749.48V789.861H749.915C750.344 789.861 750.668 789.739 750.888 789.496C751.109 789.253 751.219 788.934 751.219 788.54V787.27H753.044Z" fill="#6A99FF"/>
<g clip-path="url(#clip0_1_1415)">
<path d="M532.466 728.727H528.345V739.473H526.642V728.727H522.521V727.145H532.466V728.727ZM535.305 739.473H533.688V731.109H535.305V739.473ZM533.653 728.78C533.433 728.548 533.323 728.27 533.323 727.945C533.323 727.62 533.433 727.342 533.653 727.11C533.885 726.879 534.163 726.763 534.488 726.763C534.812 726.763 535.09 726.879 535.322 727.11C535.554 727.331 535.67 727.609 535.67 727.945C535.67 728.27 535.554 728.548 535.322 728.78C535.09 729 534.812 729.11 534.488 729.11C534.163 729.11 533.885 729 533.653 728.78ZM539.703 739.473H538.086V731.109H539.65V732.222C539.906 731.782 540.265 731.446 540.728 731.214C541.192 730.982 541.679 730.866 542.189 730.866C542.734 730.866 543.232 730.999 543.684 731.266C544.136 731.533 544.473 731.927 544.693 732.448C545.272 731.393 546.205 730.866 547.492 730.866C548.292 730.866 548.97 731.138 549.526 731.683C550.094 732.228 550.378 733.016 550.378 734.048V739.473H548.761V734.222C548.761 733.642 548.611 733.179 548.309 732.831C548.019 732.483 547.579 732.309 546.988 732.309C546.42 732.309 545.956 732.512 545.597 732.918C545.238 733.312 545.058 733.81 545.058 734.413V739.473H543.423V734.222C543.423 733.642 543.273 733.179 542.971 732.831C542.682 732.483 542.241 732.309 541.65 732.309C541.07 732.309 540.601 732.506 540.242 732.9C539.882 733.294 539.703 733.804 539.703 734.43V739.473ZM554.054 734.43H558.627C558.604 733.804 558.395 733.294 558.001 732.9C557.607 732.495 557.051 732.292 556.332 732.292C555.683 732.292 555.15 732.506 554.732 732.935C554.315 733.352 554.089 733.851 554.054 734.43ZM558.871 736.604L560.279 737.091C560.036 737.867 559.583 738.505 558.923 739.003C558.262 739.49 557.462 739.733 556.523 739.733C555.353 739.733 554.356 739.334 553.533 738.534C552.721 737.722 552.316 736.633 552.316 735.265C552.316 733.99 552.71 732.935 553.498 732.101C554.286 731.266 555.225 730.849 556.315 730.849C557.578 730.849 558.563 731.249 559.27 732.048C559.978 732.837 560.331 733.897 560.331 735.23C560.331 735.439 560.319 735.613 560.296 735.752H554.002C554.014 736.494 554.257 737.102 554.732 737.577C555.219 738.053 555.816 738.29 556.523 738.29C557.717 738.29 558.5 737.728 558.871 736.604ZM568.955 728.467V731.109H570.763V732.587H568.955V736.934C568.955 737.328 569.042 737.618 569.216 737.803C569.401 737.989 569.703 738.082 570.12 738.082C570.363 738.082 570.578 738.059 570.763 738.012V739.403C570.485 739.507 570.114 739.56 569.65 739.56C568.932 739.56 568.364 739.351 567.946 738.934C567.529 738.516 567.321 737.931 567.321 737.178V732.587H565.721V731.109H566.173C566.602 731.109 566.921 730.994 567.129 730.762C567.35 730.518 567.46 730.205 567.46 729.823V728.467H568.955ZM574.581 737.491C575.091 738.012 575.711 738.273 576.442 738.273C577.172 738.273 577.786 738.012 578.285 737.491C578.795 736.957 579.05 736.221 579.05 735.282C579.05 734.355 578.795 733.631 578.285 733.109C577.786 732.576 577.172 732.309 576.442 732.309C575.711 732.309 575.091 732.576 574.581 733.109C574.083 733.631 573.834 734.355 573.834 735.282C573.834 736.221 574.083 736.957 574.581 737.491ZM573.364 732.118C574.175 731.272 575.201 730.849 576.442 730.849C577.682 730.849 578.702 731.272 579.502 732.118C580.313 732.952 580.719 734.007 580.719 735.282C580.719 736.569 580.319 737.635 579.519 738.482C578.719 739.316 577.693 739.733 576.442 739.733C575.19 739.733 574.164 739.316 573.364 738.482C572.564 737.635 572.164 736.569 572.164 735.282C572.164 734.007 572.564 732.952 573.364 732.118ZM586.635 737.23C586.635 736.511 586.867 735.937 587.331 735.508C587.794 735.068 588.409 734.796 589.174 734.691L591.434 734.361C591.863 734.303 592.077 734.094 592.077 733.735C592.077 733.294 591.927 732.935 591.625 732.657C591.324 732.379 590.872 732.24 590.269 732.24C589.713 732.24 589.272 732.396 588.948 732.709C588.623 733.01 588.432 733.416 588.374 733.926L586.809 733.561C586.89 732.761 587.255 732.112 587.904 731.614C588.553 731.104 589.33 730.849 590.234 730.849C591.416 730.849 592.292 731.138 592.86 731.718C593.428 732.286 593.712 733.016 593.712 733.909V738.099C593.712 738.598 593.746 739.055 593.816 739.473H592.216C592.158 739.125 592.129 738.748 592.129 738.342C591.898 738.713 591.556 739.038 591.104 739.316C590.663 739.594 590.107 739.733 589.434 739.733C588.611 739.733 587.939 739.49 587.417 739.003C586.896 738.505 586.635 737.914 586.635 737.23ZM589.66 738.36C590.391 738.36 590.976 738.163 591.416 737.769C591.857 737.375 592.077 736.749 592.077 735.891V735.508L589.521 735.891C589.15 735.949 588.855 736.082 588.635 736.291C588.414 736.499 588.304 736.783 588.304 737.143C588.304 737.467 588.426 737.751 588.669 737.995C588.924 738.238 589.255 738.36 589.66 738.36ZM599.77 732.361C599.063 732.361 598.46 732.616 597.962 733.126C597.475 733.636 597.231 734.355 597.231 735.282C597.231 736.198 597.475 736.917 597.962 737.438C598.46 737.96 599.069 738.221 599.787 738.221C600.483 738.221 601.01 738.047 601.37 737.699C601.74 737.351 601.99 736.952 602.117 736.499L603.56 737.125C603.328 737.821 602.888 738.429 602.239 738.951C601.601 739.473 600.784 739.733 599.787 739.733C598.57 739.733 597.562 739.31 596.762 738.464C595.962 737.618 595.562 736.557 595.562 735.282C595.562 733.984 595.962 732.924 596.762 732.101C597.562 731.266 598.564 730.849 599.77 730.849C600.79 730.849 601.613 731.109 602.239 731.631C602.876 732.153 603.294 732.779 603.491 733.509L602.013 734.135C601.885 733.648 601.642 733.231 601.283 732.883C600.923 732.535 600.419 732.361 599.77 732.361ZM607.668 728.467V731.109H609.477V732.587H607.668V736.934C607.668 737.328 607.755 737.618 607.929 737.803C608.115 737.989 608.416 738.082 608.833 738.082C609.077 738.082 609.291 738.059 609.477 738.012V739.403C609.198 739.507 608.828 739.56 608.364 739.56C607.645 739.56 607.077 739.351 606.66 738.934C606.243 738.516 606.034 737.931 606.034 737.178V732.587H604.434V731.109H604.886C605.315 731.109 605.634 730.994 605.843 730.762C606.063 730.518 606.173 730.205 606.173 729.823V728.467H607.668ZM613.275 739.473H611.658V731.109H613.275V739.473ZM611.623 728.78C611.403 728.548 611.293 728.27 611.293 727.945C611.293 727.62 611.403 727.342 611.623 727.11C611.855 726.879 612.133 726.763 612.458 726.763C612.783 726.763 613.061 726.879 613.293 727.11C613.524 727.331 613.64 727.609 613.64 727.945C613.64 728.27 613.524 728.548 613.293 728.78C613.061 729 612.783 729.11 612.458 729.11C612.133 729.11 611.855 729 611.623 728.78ZM623.219 731.109L619.881 739.473H618.229L614.839 731.109H616.682L619.064 737.56L621.463 731.109H623.219ZM625.589 734.43H630.162C630.139 733.804 629.93 733.294 629.536 732.9C629.142 732.495 628.586 732.292 627.867 732.292C627.218 732.292 626.685 732.506 626.267 732.935C625.85 733.352 625.624 733.851 625.589 734.43ZM630.406 736.604L631.814 737.091C631.57 737.867 631.118 738.505 630.458 739.003C629.797 739.49 628.997 739.733 628.058 739.733C626.888 739.733 625.891 739.334 625.068 738.534C624.256 737.722 623.851 736.633 623.851 735.265C623.851 733.99 624.245 732.935 625.033 732.101C625.821 731.266 626.76 730.849 627.85 730.849C629.113 730.849 630.098 731.249 630.805 732.048C631.513 732.837 631.866 733.897 631.866 735.23C631.866 735.439 631.854 735.613 631.831 735.752H625.537C625.549 736.494 625.792 737.102 626.267 737.577C626.754 738.053 627.351 738.29 628.058 738.29C629.252 738.29 630.035 737.728 630.406 736.604ZM639.916 739.473H638.299V731.109H639.916V739.473ZM638.264 728.78C638.044 728.548 637.934 728.27 637.934 727.945C637.934 727.62 638.044 727.342 638.264 727.11C638.496 726.879 638.774 726.763 639.099 726.763C639.424 726.763 639.702 726.879 639.934 727.11C640.165 727.331 640.281 727.609 640.281 727.945C640.281 728.27 640.165 728.548 639.934 728.78C639.702 729 639.424 729.11 639.099 729.11C638.774 729.11 638.496 729 638.264 728.78ZM644.331 734.639V739.473H642.697V731.109H644.296V732.309C644.853 731.347 645.711 730.866 646.87 730.866C647.832 730.866 648.568 731.173 649.078 731.788C649.6 732.402 649.86 733.196 649.86 734.17V739.473H648.226V734.448C648.226 733.045 647.577 732.344 646.279 732.344C645.664 732.344 645.183 732.564 644.835 733.005C644.499 733.434 644.331 733.978 644.331 734.639ZM658.424 739.473H656.807V731.109H658.372V732.222C658.627 731.782 658.986 731.446 659.45 731.214C659.913 730.982 660.4 730.866 660.91 730.866C661.455 730.866 661.954 730.999 662.406 731.266C662.858 731.533 663.194 731.927 663.414 732.448C663.994 731.393 664.927 730.866 666.213 730.866C667.013 730.866 667.691 731.138 668.248 731.683C668.816 732.228 669.1 733.016 669.1 734.048V739.473H667.483V734.222C667.483 733.642 667.332 733.179 667.031 732.831C666.741 732.483 666.3 732.309 665.709 732.309C665.141 732.309 664.677 732.512 664.318 732.918C663.959 733.312 663.779 733.81 663.779 734.413V739.473H662.145V734.222C662.145 733.642 661.994 733.179 661.693 732.831C661.403 732.483 660.962 732.309 660.371 732.309C659.792 732.309 659.322 732.506 658.963 732.9C658.604 733.294 658.424 733.804 658.424 734.43V739.473ZM672.776 734.43H677.348C677.325 733.804 677.117 733.294 676.722 732.9C676.328 732.495 675.772 732.292 675.053 732.292C674.404 732.292 673.871 732.506 673.454 732.935C673.036 733.352 672.81 733.851 672.776 734.43ZM677.592 736.604L679 737.091C678.757 737.867 678.305 738.505 677.644 739.003C676.983 739.49 676.183 739.733 675.245 739.733C674.074 739.733 673.077 739.334 672.254 738.534C671.443 737.722 671.037 736.633 671.037 735.265C671.037 733.99 671.431 732.935 672.219 732.101C673.007 731.266 673.946 730.849 675.036 730.849C676.299 730.849 677.285 731.249 677.992 732.048C678.699 732.837 679.052 733.897 679.052 735.23C679.052 735.439 679.041 735.613 679.018 735.752H672.723C672.735 736.494 672.978 737.102 673.454 737.577C673.941 738.053 674.538 738.29 675.245 738.29C676.438 738.29 677.221 737.728 677.592 736.604ZM682.199 734.43H686.772C686.749 733.804 686.54 733.294 686.146 732.9C685.752 732.495 685.196 732.292 684.477 732.292C683.828 732.292 683.295 732.506 682.877 732.935C682.46 733.352 682.234 733.851 682.199 734.43ZM687.016 736.604L688.424 737.091C688.18 737.867 687.728 738.505 687.068 739.003C686.407 739.49 685.607 739.733 684.668 739.733C683.498 739.733 682.501 739.334 681.678 738.534C680.866 737.722 680.461 736.633 680.461 735.265C680.461 733.99 680.855 732.935 681.643 732.101C682.431 731.266 683.37 730.849 684.46 730.849C685.723 730.849 686.708 731.249 687.415 732.048C688.122 732.837 688.476 733.897 688.476 735.23C688.476 735.439 688.464 735.613 688.441 735.752H682.147C682.159 736.494 682.402 737.102 682.877 737.577C683.364 738.053 683.961 738.29 684.668 738.29C685.862 738.29 686.645 737.728 687.016 736.604ZM692.753 728.467V731.109H694.561V732.587H692.753V736.934C692.753 737.328 692.84 737.618 693.014 737.803C693.199 737.989 693.501 738.082 693.918 738.082C694.161 738.082 694.376 738.059 694.561 738.012V739.403C694.283 739.507 693.912 739.56 693.449 739.56C692.73 739.56 692.162 739.351 691.745 738.934C691.327 738.516 691.119 737.931 691.119 737.178V732.587H689.519V731.109H689.971C690.4 731.109 690.719 730.994 690.927 730.762C691.148 730.518 691.258 730.205 691.258 729.823V728.467H692.753ZM698.36 739.473H696.743V731.109H698.36V739.473ZM696.708 728.78C696.488 728.548 696.378 728.27 696.378 727.945C696.378 727.62 696.488 727.342 696.708 727.11C696.94 726.879 697.218 726.763 697.543 726.763C697.867 726.763 698.145 726.879 698.377 727.11C698.609 727.331 698.725 727.609 698.725 727.945C698.725 728.27 698.609 728.548 698.377 728.78C698.145 729 697.867 729.11 697.543 729.11C697.218 729.11 696.94 729 696.708 728.78ZM702.775 734.639V739.473H701.141V731.109H702.74V732.309C703.297 731.347 704.154 730.866 705.314 730.866C706.276 730.866 707.012 731.173 707.522 731.788C708.043 732.402 708.304 733.196 708.304 734.17V739.473H706.67V734.448C706.67 733.045 706.021 732.344 704.722 732.344C704.108 732.344 703.627 732.564 703.279 733.005C702.943 733.434 702.775 733.978 702.775 734.639ZM710.295 739.925L711.878 739.56C711.936 740.151 712.173 740.638 712.59 741.02C713.008 741.414 713.529 741.611 714.155 741.611C715.859 741.611 716.711 740.707 716.711 738.899V737.699C716.503 738.105 716.172 738.435 715.72 738.69C715.28 738.945 714.758 739.073 714.155 739.073C713.042 739.073 712.121 738.696 711.391 737.943C710.672 737.178 710.313 736.204 710.313 735.022C710.313 733.874 710.672 732.912 711.391 732.135C712.109 731.347 713.031 730.953 714.155 730.953C715.43 730.953 716.288 731.393 716.729 732.274V731.109H718.346V738.847C718.346 739.403 718.27 739.919 718.12 740.394C717.98 740.881 717.754 741.327 717.441 741.733C717.128 742.139 716.688 742.457 716.12 742.689C715.564 742.921 714.909 743.037 714.155 743.037C713.124 743.037 712.248 742.741 711.53 742.15C710.811 741.571 710.4 740.829 710.295 739.925ZM714.399 737.699C715.106 737.699 715.68 737.456 716.12 736.969C716.56 736.47 716.781 735.821 716.781 735.022C716.781 734.222 716.56 733.578 716.12 733.092C715.68 732.593 715.106 732.344 714.399 732.344C713.68 732.344 713.095 732.587 712.643 733.074C712.202 733.561 711.982 734.21 711.982 735.022C711.982 735.845 712.196 736.499 712.625 736.986C713.066 737.462 713.657 737.699 714.399 737.699Z" fill="#5A7184"/>
<path d="M549.932 686.834C549.534 684.847 547.895 682.264 543.622 682.264C540.294 682.264 537.487 684.648 537.487 687.778C537.487 690.436 539.301 692.249 542.107 692.82L544.566 693.317C545.932 693.59 546.702 694.385 546.702 695.403C546.702 696.645 545.684 697.564 543.846 697.564C541.362 697.564 540.145 695.999 539.996 694.261L536.817 695.105C537.09 697.614 539.152 700.619 543.821 700.619C547.92 700.619 550.18 697.887 550.18 695.18C550.18 692.696 548.466 690.609 545.262 689.988L542.803 689.517C541.511 689.268 540.89 688.498 540.89 687.529C540.89 686.362 541.983 685.294 543.647 685.294C545.883 685.294 546.678 686.809 546.852 687.778L549.932 686.834ZM552.28 696.918C552.28 698.831 553.87 700.595 556.478 700.595C558.291 700.595 559.459 699.75 560.08 698.781C560.08 699.253 560.129 699.924 560.204 700.247H563.234C563.16 699.825 563.085 698.955 563.085 698.309V692.298C563.085 689.839 561.645 687.654 557.77 687.654C554.491 687.654 552.727 689.765 552.529 691.677L555.46 692.298C555.559 691.23 556.354 690.311 557.795 690.311C559.185 690.311 559.856 691.032 559.856 691.901C559.856 692.323 559.633 692.671 558.937 692.77L555.932 693.217C553.895 693.516 552.28 694.733 552.28 696.918ZM557.174 698.136C556.105 698.136 555.584 697.44 555.584 696.72C555.584 695.776 556.255 695.304 557.099 695.18L559.856 694.757V695.304C559.856 697.465 558.565 698.136 557.174 698.136ZM570.664 684.375H567.684V686.089C567.684 687.182 567.088 688.026 565.796 688.026H565.175V690.957H567.386V696.645C567.386 699.005 568.876 700.421 571.26 700.421C572.229 700.421 572.825 700.247 573.123 700.123V697.39C572.949 697.44 572.502 697.49 572.105 697.49C571.161 697.49 570.664 697.142 570.664 696.074V690.957H573.123V688.026H570.664V684.375ZM584.249 700.247H587.403C587.354 699.825 587.279 698.98 587.279 698.036V688.026H583.976V695.13C583.976 696.546 583.131 697.539 581.666 697.539C580.126 697.539 579.43 696.447 579.43 695.08V688.026H576.126V695.751C576.126 698.409 577.816 700.57 580.771 700.57C582.063 700.57 583.479 700.073 584.149 698.93C584.149 699.427 584.199 699.998 584.249 700.247ZM598.505 687.977C598.256 687.952 598.008 687.927 597.735 687.927C596.691 687.927 595.002 688.225 594.257 689.839V688.026H591.053V700.247H594.357V694.658C594.357 692.025 595.822 691.206 597.511 691.206C597.809 691.206 598.132 691.23 598.505 691.305V687.977ZM612.605 682.264H609.351V689.243C609.003 688.597 608.01 687.728 605.898 687.728C602.446 687.728 600.036 690.535 600.036 694.112C600.036 697.813 602.52 700.545 605.998 700.545C607.637 700.545 608.879 699.8 609.425 698.831C609.425 699.402 609.5 699.998 609.55 700.247H612.704C612.655 699.75 612.605 698.856 612.605 698.036V682.264ZM603.365 694.112C603.365 691.926 604.706 690.684 606.395 690.684C608.084 690.684 609.401 691.901 609.401 694.087C609.401 696.297 608.084 697.589 606.395 697.589C604.656 697.589 603.365 696.297 603.365 694.112ZM615.619 696.918C615.619 698.831 617.209 700.595 619.817 700.595C621.63 700.595 622.797 699.75 623.418 698.781C623.418 699.253 623.468 699.924 623.543 700.247H626.573C626.498 699.825 626.424 698.955 626.424 698.309V692.298C626.424 689.839 624.983 687.654 621.108 687.654C617.83 687.654 616.066 689.765 615.867 691.677L618.798 692.298C618.898 691.23 619.693 690.311 621.133 690.311C622.524 690.311 623.195 691.032 623.195 691.901C623.195 692.323 622.971 692.671 622.276 692.77L619.27 693.217C617.234 693.516 615.619 694.733 615.619 696.918ZM620.512 698.136C619.444 698.136 618.923 697.44 618.923 696.72C618.923 695.776 619.593 695.304 620.438 695.18L623.195 694.757V695.304C623.195 697.465 621.903 698.136 620.512 698.136ZM633.909 705.066L641.585 688.026H638.058L635.052 695.18L631.798 688.026H628.097L633.288 698.707L630.407 705.066H633.909ZM641.16 698.26C641.16 699.452 642.005 700.321 643.222 700.321C643.495 700.321 643.768 700.247 643.868 700.172C643.818 701.538 642.626 702.607 641.508 702.855V704.445C643.346 704.221 645.88 702.681 645.88 699.03C645.88 697.415 644.961 696.173 643.421 696.173C642.129 696.173 641.16 697.067 641.16 698.26ZM661.071 690.734C659.58 690.709 658.711 689.765 658.711 688.622C658.711 687.554 659.58 686.586 661.071 686.586C662.586 686.586 663.455 687.554 663.455 688.622C663.455 689.765 662.586 690.709 661.071 690.734ZM661.071 697.788C659.307 697.788 658.363 696.695 658.363 695.552C658.363 694.385 659.258 693.267 661.071 693.267C662.884 693.267 663.803 694.385 663.803 695.552C663.803 696.695 662.859 697.788 661.071 697.788ZM661.071 700.619C664.747 700.619 667.156 698.682 667.156 695.9C667.156 694.161 666.014 692.597 664.325 691.976C665.939 691.379 666.833 689.79 666.833 688.374C666.833 685.667 664.424 683.754 661.071 683.754C657.718 683.754 655.308 685.667 655.308 688.374C655.308 689.815 656.227 691.379 657.842 691.976C656.128 692.621 654.985 694.161 654.985 695.9C654.985 698.682 657.395 700.619 661.071 700.619ZM673.449 704.966V699.055C674.046 699.874 675.287 700.545 676.976 700.545C680.429 700.545 682.739 697.813 682.739 694.112C682.739 690.485 680.677 687.753 677.101 687.753C675.263 687.753 673.896 688.573 673.35 689.517V688.026H670.146V704.966H673.449ZM679.485 694.137C679.485 696.322 678.144 697.589 676.455 697.589C674.766 697.589 673.4 696.297 673.4 694.137C673.4 691.976 674.766 690.709 676.455 690.709C678.144 690.709 679.485 691.976 679.485 694.137ZM688.907 700.247V693.093C688.907 691.752 689.751 690.684 691.192 690.684C692.682 690.684 693.353 691.677 693.353 692.994V700.247H696.631V693.093C696.631 691.777 697.476 690.684 698.892 690.684C700.407 690.684 701.053 691.677 701.053 692.994V700.247H704.257V692.323C704.257 689.045 702.096 687.678 699.836 687.678C698.221 687.678 696.93 688.225 695.961 689.715C695.34 688.399 693.999 687.678 692.334 687.678C690.993 687.678 689.428 688.324 688.758 689.517V688.026H685.603V700.247H688.907Z" fill="#183B56"/>
</g>
<path fill-rule="evenodd" clip-rule="evenodd" d="M488.69 646.441C501.722 646.441 512.287 635.876 512.287 622.844C512.287 609.812 501.722 599.247 488.69 599.247C475.658 599.247 465.093 609.812 465.093 622.844C465.093 635.876 475.658 646.441 488.69 646.441Z" fill="#C4C4C4"/>
<path fill-rule="evenodd" clip-rule="evenodd" d="M554.512 646.44C567.545 646.44 578.109 635.876 578.109 622.844C578.109 609.811 567.545 599.247 554.512 599.247C541.48 599.247 530.916 609.811 530.916 622.844C530.916 635.876 541.48 646.44 554.512 646.44Z" fill="#C4C4C4"/>
<path fill-rule="evenodd" clip-rule="evenodd" d="M620.335 646.44C633.367 646.44 643.932 635.876 643.932 622.844C643.932 609.811 633.367 599.247 620.335 599.247C607.303 599.247 596.738 609.811 596.738 622.844C596.738 635.876 607.303 646.44 620.335 646.44Z" fill="#C4C4C4"/>
<path fill-rule="evenodd" clip-rule="evenodd" d="M686.158 646.44C699.19 646.44 709.754 635.876 709.754 622.844C709.754 609.811 699.19 599.247 686.158 599.247C673.125 599.247 662.561 609.811 662.561 622.844C662.561 635.876 673.125 646.44 686.158 646.44Z" fill="#C4C4C4"/>
<path fill-rule="evenodd" clip-rule="evenodd" d="M751.98 646.44C765.012 646.44 775.577 635.876 775.577 622.844C775.577 609.811 765.012 599.247 751.98 599.247C738.948 599.247 728.383 609.811 728.383 622.844C728.383 635.876 738.948 646.44 751.98 646.44Z" fill="#C4C4C4"/>
<g filter="url(#filter3_d_1_1415)">
<rect x="530.14" y="39.2986" width="316.86" height="208.17" rx="20.0099" fill="white"/>
</g>
<path d="M580.94 145.809V142.569C584.54 141.999 586.52 139.449 586.52 136.689C586.52 133.989 584.81 131.739 581.03 130.899L578.3 130.269C576.89 129.969 576.23 129.189 576.23 128.259C576.23 127.029 577.28 125.919 579.2 125.919C581.66 125.919 582.44 127.659 582.62 128.709L586.31 127.659C585.89 125.649 584.39 123.249 580.94 122.619V119.319H577.88V122.529C574.67 123.039 572.21 125.379 572.21 128.559C572.21 131.439 574.22 133.479 577.46 134.199L580.22 134.799C581.72 135.129 582.47 135.909 582.47 136.929C582.47 138.249 581.33 139.179 579.38 139.179C576.62 139.179 575.36 137.439 575.18 135.549L571.46 136.449C571.73 138.999 573.71 142.029 577.88 142.599V145.809H580.94ZM596.293 136.839C596.533 139.899 599.473 142.779 603.703 142.779C608.383 142.779 611.173 139.629 611.173 135.999C611.173 131.829 608.413 129.489 604.513 129.489C603.223 129.489 601.843 129.909 601.003 130.689L601.963 126.399H610.123V122.829H599.143L596.833 132.819C597.253 132.939 600.223 133.959 600.613 134.109C601.243 133.389 602.293 132.789 603.613 132.789C605.413 132.789 607.063 133.839 607.063 136.059C607.063 138.009 605.563 139.239 603.703 139.239C601.633 139.239 600.253 137.769 600.163 135.969L596.293 136.839ZM617.317 132.579C617.317 130.539 617.617 128.799 618.367 127.629C618.967 126.669 619.897 126.039 621.307 126.039C622.747 126.039 623.617 126.669 624.217 127.629C624.997 128.799 625.297 130.539 625.297 132.579C625.297 134.619 624.997 136.359 624.217 137.529C623.617 138.489 622.747 139.119 621.307 139.119C619.897 139.119 618.967 138.489 618.367 137.529C617.617 136.359 617.317 134.619 617.317 132.579ZM613.177 132.579C613.177 135.069 613.567 137.499 614.887 139.509C616.177 141.429 618.277 142.779 621.307 142.779C624.337 142.779 626.437 141.429 627.697 139.509C629.017 137.499 629.437 135.069 629.437 132.579C629.437 130.089 629.017 127.659 627.697 125.649C626.437 123.729 624.337 122.379 621.307 122.379C618.277 122.379 616.177 123.729 614.887 125.649C613.567 127.659 613.177 130.089 613.177 132.579ZM631.386 139.779C631.386 141.279 632.616 142.509 634.116 142.509C635.646 142.509 636.876 141.279 636.876 139.779C636.876 138.279 635.646 137.049 634.116 137.049C632.616 137.049 631.386 138.279 631.386 139.779ZM645.203 133.659C645.623 133.509 646.133 133.359 646.973 133.359C648.833 133.359 650.153 134.409 650.153 136.239C650.153 137.859 648.923 139.179 646.853 139.179C644.813 139.179 643.403 137.739 643.313 135.759L639.323 136.539C639.563 139.809 642.323 142.749 646.853 142.749C651.563 142.749 654.323 139.659 654.323 136.299C654.323 132.729 651.623 130.479 648.683 130.359L653.723 126.159V122.829H639.953V126.399H648.473L643.373 130.779L645.203 133.659ZM671.3 123.279C670.49 122.799 669.02 122.379 667.22 122.379C660.8 122.379 656.42 126.819 656.42 133.809C656.42 139.689 660.05 142.749 664.31 142.749C668.6 142.749 671.84 139.899 671.84 135.909C671.84 131.889 669.11 129.369 665.12 129.369C662.84 129.369 661.22 130.449 660.5 131.529C660.95 127.869 663.65 125.949 666.95 125.949C668.18 125.949 669.32 126.279 670.16 126.639L671.3 123.279ZM660.86 135.999C660.86 133.989 662.42 132.759 664.28 132.759C666.17 132.759 667.73 133.989 667.73 135.999C667.73 138.009 666.17 139.269 664.28 139.269C662.48 139.269 660.86 137.979 660.86 135.999Z" fill="#333333"/>
<path d="M572.8 96.2986H571.4V86.3726H572.8V96.2986ZM576.5 92.4066V96.2986H575.184V89.5646H576.472V90.5306C576.92 89.7559 577.611 89.3686 578.544 89.3686C579.319 89.3686 579.911 89.6159 580.322 90.1106C580.742 90.6053 580.952 91.2446 580.952 92.0286V96.2986H579.636V92.2526C579.636 91.1233 579.113 90.5586 578.068 90.5586C577.573 90.5586 577.186 90.7359 576.906 91.0906C576.635 91.4359 576.5 91.8746 576.5 92.4066ZM585.873 90.5726C585.304 90.5726 584.819 90.7779 584.417 91.1886C584.025 91.5993 583.829 92.1779 583.829 92.9246C583.829 93.6619 584.025 94.2406 584.417 94.6606C584.819 95.0806 585.309 95.2906 585.887 95.2906C586.447 95.2906 586.872 95.1506 587.161 94.8706C587.46 94.5906 587.661 94.2686 587.763 93.9046L588.925 94.4086C588.739 94.9686 588.384 95.4586 587.861 95.8786C587.348 96.2986 586.69 96.5086 585.887 96.5086C584.907 96.5086 584.095 96.1679 583.451 95.4866C582.807 94.8053 582.485 93.9513 582.485 92.9246C582.485 91.8793 582.807 91.0253 583.451 90.3626C584.095 89.6906 584.903 89.3546 585.873 89.3546C586.695 89.3546 587.357 89.5646 587.861 89.9846C588.375 90.4046 588.711 90.9086 588.869 91.4966L587.679 92.0006C587.577 91.6086 587.381 91.2726 587.091 90.9926C586.802 90.7126 586.396 90.5726 585.873 90.5726ZM591.787 94.7026C592.197 95.1226 592.697 95.3326 593.285 95.3326C593.873 95.3326 594.367 95.1226 594.769 94.7026C595.179 94.2733 595.385 93.6806 595.385 92.9246C595.385 92.1779 595.179 91.5946 594.769 91.1746C594.367 90.7453 593.873 90.5306 593.285 90.5306C592.697 90.5306 592.197 90.7453 591.787 91.1746C591.385 91.5946 591.185 92.1779 591.185 92.9246C591.185 93.6806 591.385 94.2733 591.787 94.7026ZM590.807 90.3766C591.46 89.6953 592.286 89.3546 593.285 89.3546C594.283 89.3546 595.105 89.6953 595.749 90.3766C596.402 91.0486 596.729 91.8979 596.729 92.9246C596.729 93.9606 596.407 94.8193 595.763 95.5006C595.119 96.1726 594.293 96.5086 593.285 96.5086C592.277 96.5086 591.451 96.1726 590.807 95.5006C590.163 94.8193 589.841 93.9606 589.841 92.9246C589.841 91.8979 590.163 91.0486 590.807 90.3766ZM599.714 96.2986H598.412V89.5646H599.672V90.4606C599.878 90.1059 600.167 89.8353 600.54 89.6486C600.914 89.4619 601.306 89.3686 601.716 89.3686C602.155 89.3686 602.556 89.4759 602.92 89.6906C603.284 89.9053 603.555 90.2226 603.732 90.6426C604.199 89.7933 604.95 89.3686 605.986 89.3686C606.63 89.3686 607.176 89.5879 607.624 90.0266C608.082 90.4653 608.31 91.0999 608.31 91.9306V96.2986H607.008V92.0706C607.008 91.6039 606.887 91.2306 606.644 90.9506C606.411 90.6706 606.056 90.5306 605.58 90.5306C605.123 90.5306 604.75 90.6939 604.46 91.0206C604.171 91.3379 604.026 91.7393 604.026 92.2246V96.2986H602.71V92.0706C602.71 91.6039 602.589 91.2306 602.346 90.9506C602.113 90.6706 601.758 90.5306 601.282 90.5306C600.816 90.5306 600.438 90.6893 600.148 91.0066C599.859 91.3239 599.714 91.7346 599.714 92.2386V96.2986ZM611.27 92.2386H614.952C614.934 91.7346 614.766 91.3239 614.448 91.0066C614.131 90.6799 613.683 90.5166 613.104 90.5166C612.582 90.5166 612.152 90.6893 611.816 91.0346C611.48 91.3706 611.298 91.7719 611.27 92.2386ZM615.148 93.9886L616.282 94.3806C616.086 95.0059 615.722 95.5193 615.19 95.9206C614.658 96.3126 614.014 96.5086 613.258 96.5086C612.316 96.5086 611.513 96.1866 610.85 95.5426C610.197 94.8893 609.87 94.0119 609.87 92.9106C609.87 91.8839 610.188 91.0346 610.822 90.3626C611.457 89.6906 612.213 89.3546 613.09 89.3546C614.108 89.3546 614.901 89.6766 615.47 90.3206C616.04 90.9553 616.324 91.8093 616.324 92.8826C616.324 93.0506 616.315 93.1906 616.296 93.3026H611.228C611.238 93.8999 611.434 94.3899 611.816 94.7726C612.208 95.1553 612.689 95.3466 613.258 95.3466C614.22 95.3466 614.85 94.8939 615.148 93.9886ZM628.532 87.6466H625.214V96.2986H623.842V87.6466H620.524V86.3726H628.532V87.6466ZM631.105 92.3366V96.2986H629.789V86.1626H631.105V90.3486C631.553 89.6953 632.235 89.3686 633.149 89.3686C633.924 89.3686 634.517 89.6159 634.927 90.1106C635.347 90.6053 635.557 91.2446 635.557 92.0286V96.2986H634.241V92.2526C634.241 91.1233 633.719 90.5586 632.673 90.5586C632.188 90.5586 631.81 90.7266 631.539 91.0626C631.269 91.3893 631.124 91.8139 631.105 92.3366ZM638.953 96.2986H637.651V89.5646H638.953V96.2986ZM637.623 87.6886C637.445 87.5019 637.357 87.2779 637.357 87.0166C637.357 86.7553 637.445 86.5313 637.623 86.3446C637.809 86.1579 638.033 86.0646 638.295 86.0646C638.556 86.0646 638.78 86.1579 638.967 86.3446C639.153 86.5219 639.247 86.7459 639.247 87.0166C639.247 87.2779 639.153 87.5019 638.967 87.6886C638.78 87.8659 638.556 87.9546 638.295 87.9546C638.033 87.9546 637.809 87.8659 637.623 87.6886ZM640.562 94.5486L641.752 94.1286C641.798 94.4926 641.957 94.7959 642.228 95.0386C642.498 95.2719 642.862 95.3886 643.32 95.3886C643.674 95.3886 643.954 95.3046 644.16 95.1366C644.365 94.9593 644.468 94.7446 644.468 94.4926C644.468 94.0446 644.178 93.7553 643.6 93.6246L642.452 93.3726C641.929 93.2606 641.518 93.0366 641.22 92.7006C640.921 92.3646 640.772 91.9586 640.772 91.4826C640.772 90.9039 641.005 90.4046 641.472 89.9846C641.948 89.5646 642.512 89.3546 643.166 89.3546C643.595 89.3546 643.978 89.4199 644.314 89.5506C644.65 89.6719 644.911 89.8353 645.098 90.0406C645.284 90.2459 645.424 90.4373 645.518 90.6146C645.611 90.7919 645.681 90.9739 645.728 91.1606L644.566 91.5946C644.547 91.4826 644.514 91.3753 644.468 91.2726C644.421 91.1606 644.346 91.0393 644.244 90.9086C644.15 90.7779 644.01 90.6753 643.824 90.6006C643.637 90.5166 643.418 90.4746 643.166 90.4746C642.839 90.4746 642.568 90.5633 642.354 90.7406C642.148 90.9179 642.046 91.1279 642.046 91.3706C642.046 91.7999 642.302 92.0706 642.816 92.1826L643.908 92.4206C644.505 92.5513 644.962 92.7939 645.28 93.1486C645.606 93.4939 645.77 93.9186 645.77 94.4226C645.77 94.9546 645.55 95.4353 645.112 95.8646C644.682 96.2939 644.08 96.5086 643.306 96.5086C642.475 96.5086 641.826 96.3033 641.36 95.8926C640.893 95.4726 640.627 95.0246 640.562 94.5486ZM661.886 96.2986H660.528V88.5706L657.14 96.2986H655.88L652.52 88.5706V96.2986H651.162V86.3726H653.024L656.524 94.4506L660.052 86.3726H661.886V96.2986ZM665.656 94.7026C666.067 95.1226 666.566 95.3326 667.154 95.3326C667.742 95.3326 668.237 95.1226 668.638 94.7026C669.049 94.2733 669.254 93.6806 669.254 92.9246C669.254 92.1779 669.049 91.5946 668.638 91.1746C668.237 90.7453 667.742 90.5306 667.154 90.5306C666.566 90.5306 666.067 90.7453 665.656 91.1746C665.255 91.5946 665.054 92.1779 665.054 92.9246C665.054 93.6806 665.255 94.2733 665.656 94.7026ZM664.676 90.3766C665.329 89.6953 666.155 89.3546 667.154 89.3546C668.153 89.3546 668.974 89.6953 669.618 90.3766C670.271 91.0486 670.598 91.8979 670.598 92.9246C670.598 93.9606 670.276 94.8193 669.632 95.5006C668.988 96.1726 668.162 96.5086 667.154 96.5086C666.146 96.5086 665.32 96.1726 664.676 95.5006C664.032 94.8193 663.71 93.9606 663.71 92.9246C663.71 91.8979 664.032 91.0486 664.676 90.3766ZM673.598 92.4066V96.2986H672.282V89.5646H673.57V90.5306C674.018 89.7559 674.708 89.3686 675.642 89.3686C676.416 89.3686 677.009 89.6159 677.42 90.1106C677.84 90.6053 678.05 91.2446 678.05 92.0286V96.2986H676.734V92.2526C676.734 91.1233 676.211 90.5586 675.166 90.5586C674.671 90.5586 674.284 90.7359 674.004 91.0906C673.733 91.4359 673.598 91.8746 673.598 92.4066ZM681.907 87.4366V89.5646H683.363V90.7546H681.907V94.2546C681.907 94.5719 681.977 94.8053 682.117 94.9546C682.266 95.1039 682.509 95.1786 682.845 95.1786C683.041 95.1786 683.214 95.1599 683.363 95.1226V96.2426C683.139 96.3266 682.84 96.3686 682.467 96.3686C681.888 96.3686 681.431 96.2006 681.095 95.8646C680.759 95.5286 680.591 95.0573 680.591 94.4506V90.7546H679.303V89.5646H679.667C680.012 89.5646 680.269 89.4713 680.437 89.2846C680.614 89.0886 680.703 88.8366 680.703 88.5286V87.4366H681.907ZM686.436 92.3366V96.2986H685.12V86.1626H686.436V90.3486C686.884 89.6953 687.565 89.3686 688.48 89.3686C689.254 89.3686 689.847 89.6159 690.258 90.1106C690.678 90.6053 690.888 91.2446 690.888 92.0286V96.2986H689.572V92.2526C689.572 91.1233 689.049 90.5586 688.004 90.5586C687.518 90.5586 687.14 90.7266 686.87 91.0626C686.599 91.3893 686.454 91.8139 686.436 92.3366Z" fill="#5A7184"/>
<g filter="url(#filter4_d_1_1415)">
<path d="M618.83 207.47L618.085 209.856L618.76 210.067L619.446 209.893L618.83 207.47ZM710.631 184.14L711.556 181.817L710.802 181.517L710.016 181.717L710.631 184.14ZM760.336 203.92L759.411 206.243L760.638 206.731L761.733 205.993L760.336 203.92ZM808.394 174.548C809.539 173.776 809.842 172.222 809.07 171.077C808.299 169.932 806.745 169.63 805.6 170.401L808.394 174.548ZM569.394 194.641L618.085 209.856L619.576 205.084L570.886 189.869L569.394 194.641ZM619.446 209.893L711.247 186.563L710.016 181.717L618.214 205.047L619.446 209.893ZM709.707 186.463L759.411 206.243L761.26 201.597L711.556 181.817L709.707 186.463ZM761.733 205.993L808.394 174.548L805.6 170.401L758.939 201.847L761.733 205.993Z" fill="#1ECAAB"/>
</g>
<path fill-rule="evenodd" clip-rule="evenodd" d="M708.028 134.61C707.779 134.711 707.486 134.613 707.346 134.37C707.193 134.106 707.28 133.769 707.541 133.618L715.845 128.824L711.095 127.524L711.018 127.497C710.772 127.389 710.633 127.114 710.702 126.847C710.778 126.553 711.077 126.38 711.369 126.46L717.392 128.108C717.428 128.117 717.462 128.13 717.496 128.146C717.732 128.258 717.864 128.529 717.795 128.791L716.208 134.841L716.182 134.918C716.076 135.164 715.805 135.299 715.539 135.225C715.247 135.144 715.072 134.84 715.149 134.547L716.399 129.783L708.095 134.577L708.028 134.61Z" fill="#1ECAAB"/>
<path d="M728.806 135.37H727.654V129.886H725.77V129.058C726.298 129.05 726.742 128.914 727.102 128.65C727.462 128.378 727.686 128.026 727.774 127.594H728.806V135.37ZM731.451 130.39L730.275 130.246C730.267 130.174 730.263 130.07 730.263 129.934C730.263 129.238 730.507 128.646 730.995 128.158C731.483 127.662 732.135 127.414 732.951 127.414C733.759 127.414 734.399 127.646 734.871 128.11C735.343 128.566 735.579 129.13 735.579 129.802C735.579 130.786 735.091 131.586 734.115 132.202L732.579 133.186C732.027 133.538 731.711 133.902 731.631 134.278H735.627V135.37H730.179C730.195 134.714 730.343 134.138 730.623 133.642C730.911 133.146 731.379 132.69 732.027 132.274L733.323 131.434C734.035 130.978 734.391 130.438 734.391 129.814C734.391 129.43 734.263 129.106 734.007 128.842C733.751 128.578 733.391 128.446 732.927 128.446C732.439 128.446 732.067 128.594 731.811 128.89C731.555 129.186 731.427 129.57 731.427 130.042C731.427 130.114 731.435 130.23 731.451 130.39ZM738.031 128.722C737.855 128.898 737.767 129.122 737.767 129.394C737.767 129.666 737.855 129.894 738.031 130.078C738.207 130.254 738.427 130.342 738.691 130.342C738.955 130.342 739.175 130.254 739.351 130.078C739.527 129.894 739.615 129.666 739.615 129.394C739.615 129.122 739.527 128.898 739.351 128.722C739.175 128.546 738.955 128.458 738.691 128.458C738.427 128.458 738.207 128.546 738.031 128.722ZM736.771 129.394C736.771 128.874 736.959 128.43 737.335 128.062C737.719 127.694 738.171 127.51 738.691 127.51C739.211 127.51 739.663 127.694 740.047 128.062C740.431 128.43 740.623 128.874 740.623 129.394C740.623 129.922 740.431 130.37 740.047 130.738C739.663 131.106 739.211 131.29 738.691 131.29C738.171 131.29 737.719 131.106 737.335 130.738C736.959 130.37 736.771 129.922 736.771 129.394ZM742.783 132.898C742.607 133.074 742.519 133.298 742.519 133.57C742.519 133.842 742.607 134.07 742.783 134.254C742.959 134.43 743.179 134.518 743.443 134.518C743.707 134.518 743.927 134.43 744.103 134.254C744.279 134.07 744.367 133.842 744.367 133.57C744.367 133.298 744.279 133.074 744.103 132.898C743.927 132.722 743.707 132.634 743.443 132.634C743.179 132.634 742.959 132.722 742.783 132.898ZM741.523 133.57C741.523 133.05 741.711 132.606 742.087 132.238C742.471 131.87 742.923 131.686 743.443 131.686C743.963 131.686 744.415 131.87 744.799 132.238C745.183 132.606 745.375 133.05 745.375 133.57C745.375 134.098 745.183 134.546 744.799 134.914C744.415 135.282 743.963 135.466 743.443 135.466C742.923 135.466 742.471 135.282 742.087 134.914C741.711 134.546 741.523 134.098 741.523 133.57ZM738.835 135.37H737.731L743.323 127.594H744.403L738.835 135.37Z" fill="#1ECAAB"/>
<defs>
<filter id="filter0_d_1_1415" x="102.891" y="73.766" width="650.626" height="741.805" filterUnits="userSpaceOnUse" color-interpolation-filters="sRGB">
<feFlood flood-opacity="0" result="BackgroundImageFix"/>
<feColorMatrix in="SourceAlpha" type="matrix" values="0 0 0 0 0 0 0 0 0 0 0 0 0 0 0 0 0 0 127 0" result="hardAlpha"/>
<feOffset dy="21.1129"/>
<feGaussianBlur stdDeviation="25"/>
<feColorMatrix type="matrix" values="0 0 0 0 0 0 0 0 0 0 0 0 0 0 0 0 0 0 0.1 0"/>
<feBlend mode="normal" in2="BackgroundImageFix" result="effect1_dropShadow_1_1415"/>
<feBlend mode="normal" in="SourceGraphic" in2="effect1_dropShadow_1_1415" result="shape"/>
</filter>
<filter id="filter1_d_1_1415" x="0.845364" y="234.674" width="505.483" height="337.447" filterUnits="userSpaceOnUse" color-interpolation-filters="sRGB">
<feFlood flood-opacity="0" result="BackgroundImageFix"/>
<feColorMatrix in="SourceAlpha" type="matrix" values="0 0 0 0 0 0 0 0 0 0 0 0 0 0 0 0 0 0 127 0" result="hardAlpha"/>
<feOffset dy="26.6471"/>
<feGaussianBlur stdDeviation="30.5658"/>
<feColorMatrix type="matrix" values="0 0 0 0 0 0 0 0 0 0 0 0 0 0 0 0 0 0 0.05 0"/>
<feBlend mode="normal" in2="BackgroundImageFix" result="effect1_dropShadow_1_1415"/>
<feBlend mode="normal" in="SourceGraphic" in2="effect1_dropShadow_1_1415" result="shape"/>
</filter>
<filter id="filter2_d_1_1415" x="379.399" y="540.876" width="481.871" height="375.065" filterUnits="userSpaceOnUse" color-interpolation-filters="sRGB">
<feFlood flood-opacity="0" result="BackgroundImageFix"/>
<feColorMatrix in="SourceAlpha" type="matrix" values="0 0 0 0 0 0 0 0 0 0 0 0 0 0 0 0 0 0 127 0" result="hardAlpha"/>
<feOffset dy="21.1129"/>
<feGaussianBlur stdDeviation="24.2177"/>
<feColorMatrix type="matrix" values="0 0 0 0 0 0 0 0 0 0 0 0 0 0 0 0 0 0 0.12 0"/>
<feBlend mode="normal" in2="BackgroundImageFix" result="effect1_dropShadow_1_1415"/>
<feBlend mode="normal" in="SourceGraphic" in2="effect1_dropShadow_1_1415" result="shape"/>
</filter>
<filter id="filter3_d_1_1415" x="461.925" y="0.818094" width="453.291" height="344.601" filterUnits="userSpaceOnUse" color-interpolation-filters="sRGB">
<feFlood flood-opacity="0" result="BackgroundImageFix"/>
<feColorMatrix in="SourceAlpha" type="matrix" values="0 0 0 0 0 0 0 0 0 0 0 0 0 0 0 0 0 0 127 0" result="hardAlpha"/>
<feOffset dy="29.7349"/>
<feGaussianBlur stdDeviation="34.1077"/>
<feColorMatrix type="matrix" values="0 0 0 0 0 0 0 0 0 0 0 0 0 0 0 0 0 0 0.05 0"/>
<feBlend mode="normal" in2="BackgroundImageFix" result="effect1_dropShadow_1_1415"/>
<feBlend mode="normal" in="SourceGraphic" in2="effect1_dropShadow_1_1415" result="shape"/>
</filter>
<filter id="filter4_d_1_1415" x="565.394" y="169.974" width="248.103" height="48.0933" filterUnits="userSpaceOnUse" color-interpolation-filters="sRGB">
<feFlood flood-opacity="0" result="BackgroundImageFix"/>
<feColorMatrix in="SourceAlpha" type="matrix" values="0 0 0 0 0 0 0 0 0 0 0 0 0 0 0 0 0 0 127 0" result="hardAlpha"/>
<feOffset dy="4"/>
<feGaussianBlur stdDeviation="2"/>
<feColorMatrix type="matrix" values="0 0 0 0 0.117647 0 0 0 0 0.792157 0 0 0 0 0.670588 0 0 0 0.1 0"/>
<feBlend mode="normal" in2="BackgroundImageFix" result="effect1_dropShadow_1_1415"/>
<feBlend mode="normal" in="SourceGraphic" in2="effect1_dropShadow_1_1415" result="shape"/>
</filter>
<clipPath id="clip0_1_1415">
<rect width="216.097" height="72.0323" fill="white" transform="translate(512.287 676.247)"/>
</clipPath>
</defs>
</svg>
