<svg width="42" height="41" viewBox="0 0 42 41" fill="none" xmlns="http://www.w3.org/2000/svg">
<g clip-path="url(#clip0_1_910)">
<rect opacity="0.1" y="0.513672" width="42" height="40" rx="20" fill="#FF7342"/>
<path opacity="0.6" d="M28.9583 21.0345C28.9583 20.5345 28.8958 20.1595 28.8333 19.7533H21.4583V22.4095H25.8333C25.6771 23.5658 24.5208 25.7533 21.4583 25.7533C18.8021 25.7533 16.6458 23.5658 16.6458 20.847C16.6458 16.5033 21.7708 14.5033 24.5208 17.1595L26.6458 15.1283C25.3021 13.8783 23.5208 13.097 21.4583 13.097C17.1458 13.097 13.7083 16.5658 13.7083 20.847C13.7083 25.1595 17.1458 28.597 21.4583 28.597C25.9271 28.597 28.9583 25.472 28.9583 21.0345Z" fill="#FF7342"/>
</g>
<defs>
<clipPath id="clip0_1_910">
<rect width="42" height="40" fill="white" transform="translate(0 0.513672)"/>
</clipPath>
</defs>
</svg>
