<svg width="40" height="41" viewBox="0 0 40 41" fill="none" xmlns="http://www.w3.org/2000/svg">
<g clip-path="url(#clip0_1_920)">
<rect opacity="0.1" y="0.513672" width="40" height="40" rx="20" fill="#FF7342"/>
<path opacity="0.6" d="M20.3333 17.2533C18.3333 17.2533 16.7396 18.8783 16.7396 20.847C16.7396 22.847 18.3333 24.4408 20.3333 24.4408C22.3021 24.4408 23.9271 22.847 23.9271 20.847C23.9271 18.8783 22.3021 17.2533 20.3333 17.2533ZM20.3333 23.1908C19.0521 23.1908 17.9896 22.1595 17.9896 20.847C17.9896 19.5658 19.0208 18.5345 20.3333 18.5345C21.6146 18.5345 22.6458 19.5658 22.6458 20.847C22.6458 22.1595 21.6146 23.1908 20.3333 23.1908ZM24.8958 17.1283C24.8958 16.6595 24.5208 16.2845 24.0521 16.2845C23.5833 16.2845 23.2083 16.6595 23.2083 17.1283C23.2083 17.597 23.5833 17.972 24.0521 17.972C24.5208 17.972 24.8958 17.597 24.8958 17.1283ZM27.2708 17.972C27.2083 16.847 26.9583 15.847 26.1458 15.0345C25.3333 14.222 24.3333 13.972 23.2083 13.9095C22.0521 13.847 18.5833 13.847 17.4271 13.9095C16.3021 13.972 15.3333 14.222 14.4896 15.0345C13.6771 15.847 13.4271 16.847 13.3646 17.972C13.3021 19.1283 13.3021 22.597 13.3646 23.7533C13.4271 24.8783 13.6771 25.847 14.4896 26.6908C15.3333 27.5033 16.3021 27.7533 17.4271 27.8158C18.5833 27.8783 22.0521 27.8783 23.2083 27.8158C24.3333 27.7533 25.3333 27.5033 26.1458 26.6908C26.9583 25.847 27.2083 24.8783 27.2708 23.7533C27.3333 22.597 27.3333 19.1283 27.2708 17.972ZM25.7708 24.972C25.5521 25.597 25.0521 26.0658 24.4583 26.3158C23.5208 26.6908 21.3333 26.597 20.3333 26.597C19.3021 26.597 17.1146 26.6908 16.2083 26.3158C15.5833 26.0658 15.1146 25.597 14.8646 24.972C14.4896 24.0658 14.5833 21.8783 14.5833 20.847C14.5833 19.847 14.4896 17.6595 14.8646 16.722C15.1146 16.1283 15.5833 15.6595 16.2083 15.4095C17.1146 15.0345 19.3021 15.1283 20.3333 15.1283C21.3333 15.1283 23.5208 15.0345 24.4583 15.4095C25.0521 15.6283 25.5208 16.1283 25.7708 16.722C26.1458 17.6595 26.0521 19.847 26.0521 20.847C26.0521 21.8783 26.1458 24.0658 25.7708 24.972Z" fill="#FF7342"/>
</g>
<defs>
<clipPath id="clip0_1_920">
<rect width="40" height="40" fill="white" transform="translate(0 0.513672)"/>
</clipPath>
</defs>
</svg>
