<svg width="40" height="41" viewBox="0 0 40 41" fill="none" xmlns="http://www.w3.org/2000/svg">
<g clip-path="url(#clip0_1_925)">
<rect opacity="0.1" y="0.513672" width="40" height="40" rx="20" fill="#FF7342"/>
<path opacity="0.6" d="M26.3333 13.847H14.3021C13.7708 13.847 13.3333 14.3158 13.3333 14.8783V26.847C13.3333 27.4095 13.7708 27.847 14.3021 27.847H26.3333C26.8646 27.847 27.3333 27.4095 27.3333 26.847V14.8783C27.3333 14.3158 26.8646 13.847 26.3333 13.847ZM17.5521 25.847H15.4896V19.1908H17.5521V25.847ZM16.5208 18.2533C15.8333 18.2533 15.3021 17.722 15.3021 17.0658C15.3021 16.4095 15.8333 15.847 16.5208 15.847C17.1771 15.847 17.7083 16.4095 17.7083 17.0658C17.7083 17.722 17.1771 18.2533 16.5208 18.2533ZM25.3333 25.847H23.2396V22.597C23.2396 21.847 23.2396 20.847 22.1771 20.847C21.0833 20.847 20.9271 21.6908 20.9271 22.5658V25.847H18.8646V19.1908H20.8333V20.097H20.8646C21.1458 19.5658 21.8333 19.0033 22.8333 19.0033C24.9271 19.0033 25.3333 20.4095 25.3333 22.1908V25.847Z" fill="#FF7342"/>
</g>
<defs>
<clipPath id="clip0_1_925">
<rect width="40" height="40" fill="white" transform="translate(0 0.513672)"/>
</clipPath>
</defs>
</svg>
