<svg width="61" height="23" viewBox="0 0 61 23" fill="none" xmlns="http://www.w3.org/2000/svg">
<path d="M18.2241 21.9375V0.585454H14.038V9.16843H4.73224V0.585454H0.576275V21.9375H4.73224V13.0835H14.038V21.9375H18.2241ZM31.8378 7.06033C31.5366 7.03022 31.2355 7.0001 30.9042 7.0001C29.6394 7.0001 27.5915 7.36149 26.688 9.31901V7.12057H22.8031V21.9375H26.8085V15.1615C26.8085 11.9692 28.5853 10.9754 30.6332 10.9754C30.9946 10.9754 31.3861 11.0055 31.8378 11.0958V7.06033ZM43.69 7.06033C43.3888 7.03022 43.0877 7.0001 42.7564 7.0001C41.4915 7.0001 39.4437 7.36149 38.5402 9.31901V7.12057H34.6553V21.9375H38.6607V15.1615C38.6607 11.9692 40.4375 10.9754 42.4854 10.9754C42.8467 10.9754 43.2382 11.0055 43.69 11.0958V7.06033Z" fill="#3B3B3B"/>
<path d="M60.5435 0.133718H56.5983V8.59624C56.1767 7.81323 54.9721 6.75918 52.4123 6.75918C48.2262 6.75918 45.3049 10.1623 45.3049 14.4989C45.3049 18.9862 48.3165 22.2989 52.5327 22.2989C54.5204 22.2989 56.0261 21.3954 56.6887 20.2209C56.6887 20.9136 56.779 21.6363 56.8393 21.9375H60.664C60.6037 21.3352 60.5435 20.251 60.5435 19.2572V0.133718ZM49.3404 14.4989C49.3404 11.8487 50.9667 10.3429 53.0146 10.3429C55.0624 10.3429 56.6586 11.8186 56.6586 14.4688C56.6586 17.1491 55.0624 18.7151 53.0146 18.7151C50.9065 18.7151 49.3404 17.1491 49.3404 14.4989Z" fill="#E6693D"/>
</svg>
