<svg width="81" height="81" viewBox="0 0 81 81" fill="none" xmlns="http://www.w3.org/2000/svg">
<circle cx="40.335" cy="40.1494" r="40" fill="#FF7342"/>
<g clip-path="url(#clip0_1_1495)">
<path d="M40.0215 60.1494H36.8965C35.3456 60.1494 34.084 58.8878 34.084 57.3369V37.9619C34.084 36.4111 35.3456 35.1494 36.8965 35.1494H40.0215C41.5723 35.1494 42.834 36.4111 42.834 37.9619V57.3369C42.834 58.8878 41.5723 60.1494 40.0215 60.1494Z" fill="white"/>
<path d="M28.1465 60.1494H25.0215C23.4706 60.1494 22.209 58.8878 22.209 57.3369V44.2119C22.209 42.6611 23.4706 41.3994 25.0215 41.3994H28.1465C29.6973 41.3994 30.959 42.6611 30.959 44.2119V57.3369C30.959 58.8878 29.6973 60.1494 28.1465 60.1494Z" fill="white"/>
<path d="M51.8964 60.1494H48.7714C47.2206 60.1494 45.9589 58.8878 45.9589 57.3369V31.3994H44.2417C43.4389 31.3994 42.7317 30.9463 42.3963 30.2169C42.0608 29.4875 42.177 28.6558 42.6995 28.0462C42.7054 28.0393 42.7115 28.0323 42.7176 28.0255L49.403 20.5652C49.6401 20.3006 49.9786 20.1494 50.3339 20.1494C50.6893 20.1494 51.0277 20.3006 51.2649 20.5652L57.9503 28.0255C57.9564 28.0323 57.9625 28.0393 57.9684 28.0462C58.4909 28.6557 58.6071 29.4875 58.2716 30.2169C57.9361 30.9463 57.2289 31.3994 56.4261 31.3994H54.7089V57.3369C54.7089 58.8878 53.4472 60.1494 51.8964 60.1494Z" fill="white"/>
</g>
<defs>
<clipPath id="clip0_1_1495">
<rect width="40" height="40" fill="white" transform="translate(20.335 20.1494)"/>
</clipPath>
</defs>
</svg>
