<svg width="42" height="41" viewBox="0 0 42 41" fill="none" xmlns="http://www.w3.org/2000/svg">
<g clip-path="url(#clip0_1_915)">
<rect opacity="0.1" y="0.513672" width="42" height="40" rx="20" fill="#FF7342"/>
<path opacity="0.6" d="M27.6771 17.597C28.3021 17.1283 28.8646 16.5658 29.3021 15.9095C28.7396 16.1595 28.0833 16.347 27.4271 16.4095C28.1146 16.0033 28.6146 15.3783 28.8646 14.597C28.2396 14.972 27.5208 15.2533 26.8021 15.4095C26.1771 14.7533 25.3333 14.3783 24.3958 14.3783C22.5833 14.3783 21.1146 15.847 21.1146 17.6595C21.1146 17.9095 21.1458 18.1595 21.2083 18.4095C18.4896 18.2533 16.0521 16.9408 14.4271 14.972C14.1458 15.4408 13.9896 16.0033 13.9896 16.6283C13.9896 17.7533 14.5521 18.7533 15.4583 19.347C14.9271 19.3158 14.3958 19.1908 13.9583 18.9408V18.972C13.9583 20.5658 15.0833 21.8783 16.5833 22.1908C16.3333 22.2533 16.0208 22.3158 15.7396 22.3158C15.5208 22.3158 15.3333 22.2845 15.1146 22.2533C15.5208 23.5658 16.7396 24.5033 18.1771 24.5345C17.0521 25.4095 15.6458 25.9408 14.1146 25.9408C13.8333 25.9408 13.5833 25.9095 13.3333 25.8783C14.7708 26.8158 16.4896 27.347 18.3646 27.347C24.3958 27.347 27.6771 22.3783 27.6771 18.0345C27.6771 17.8783 27.6771 17.7533 27.6771 17.597Z" fill="#FF7342"/>
</g>
<defs>
<clipPath id="clip0_1_915">
<rect width="42" height="40" fill="white" transform="translate(0 0.513672)"/>
</clipPath>
</defs>
</svg>
